<svg xmlns:mydata="http://www.w3.org/2000/svg" mydata:contrastcolor="ffffff" mydata:template="Default" mydata:presentation="2.5" mydata:layouttype="undefined" mydata:specialfontid="undefined" mydata:id1="554" mydata:id2="073" mydata:companyname="fabrico" mydata:companytagline="Shop smart, Shop easy" version="1.1" xmlns="http://www.w3.org/2000/svg" xmlns:xlink="http://www.w3.org/1999/xlink" viewBox="0 35 550 400"><g fill="#007a33" fill-rule="none" stroke="none" stroke-width="1" stroke-linecap="butt" stroke-linejoin="miter" stroke-miterlimit="10" stroke-dasharray="" stroke-dashoffset="0" font-family="none" font-weight="none" font-size="none" text-anchor="none" style="mix-blend-mode: normal"><g data-paper-data="{&quot;isGlobalGroup&quot;:true,&quot;bounds&quot;:{&quot;x&quot;:88.6729217551261,&quot;y&quot;:106.00000000000001,&quot;width&quot;:372.6541564897478,&quot;height&quot;:258}}"><g data-paper-data="{&quot;isIcon&quot;:&quot;true&quot;,&quot;iconType&quot;:&quot;icon&quot;,&quot;rawIconId&quot;:&quot;2052f11c-2fdc-4f29-bd6f-7e10cd0c50de&quot;,&quot;source&quot;:&quot;inline&quot;,&quot;selectedEffects&quot;:{&quot;container&quot;:&quot;enclosed_circle_outline3&quot;,&quot;transformation&quot;:&quot;&quot;,&quot;pattern&quot;:&quot;&quot;},&quot;isDetailed&quot;:true,&quot;fillRule&quot;:&quot;nonzero&quot;,&quot;blockLetter&quot;:&quot;O&quot;,&quot;blockLetterId&quot;:0,&quot;relativeBoundsIconToContainer&quot;:{&quot;top&quot;:0.15862076980290069,&quot;left&quot;:0},&quot;widthRatioIconToContainer&quot;:1,&quot;heightRatioIconToContainer&quot;:0.6827584603941985,&quot;bounds&quot;:{&quot;x&quot;:188.022310547585,&quot;y&quot;:153.4316043695672,&quot;width&quot;:171.27824803819652,&quot;height&quot;:126.88408906183469},&quot;iconStyle&quot;:&quot;standalone&quot;,&quot;suitableAsStandaloneIcon&quot;:false}" fill-rule="evenodd"><path d="M243.20104,159.8387c-9.75246,4.12484 -18.38873,9.9473 -25.90881,17.46738c-7.52008,7.52008 -13.34254,16.15631 -17.46739,25.90871c-1.50065,3.54774 -2.73765,7.15457 -3.71106,10.82038l0.22511,-0.06435l1.66392,-0.40423l0.34655,-0.07173l1.68792,-0.2889l0.12039,-0.01906l0.42088,-0.06183l1.70046,-0.24783l0.72052,-0.10364c0.74201,-2.40023 1.60872,-4.77235 2.60014,-7.11623c3.80726,-9.0015 9.18266,-16.97402 16.12619,-23.91755c6.94353,-6.94353 14.91598,-12.31893 23.91734,-16.12619c9.31782,-3.9411 19.08008,-5.91165 29.28677,-5.91165c10.20665,0 19.96905,1.97053 29.28708,5.91165c9.00101,3.80719 16.97335,9.18259 23.91702,16.12619c5.98312,5.98277 10.8017,12.72938 14.45575,20.23984l0.75201,-0.03118l1.71573,-0.06951l1.72626,-0.06499l1.73785,-0.05677l0.65933,0.02075l0.24119,0.02317c-4.08131,-9.17532 -9.69931,-17.34026 -16.85398,-24.49504c-7.52015,-7.52001 -16.15674,-13.34247 -25.90976,-17.46738c-10.09799,-4.2714 -20.67416,-6.40709 -31.7285,-6.40709c-11.05434,0 -21.63065,2.1357 -31.72892,6.40709zM307.9076,258.15727c11.63411,-0.89483 22.88379,-1.27832 34.51685,-1.78977l0.25594,-0.76697c-1.66202,-0.51145 -3.32403,-1.15067 -4.98605,-1.53415c-13.80695,-2.0455 -27.10203,-3.32393 -40.90898,-3.70741c2.55727,-7.1591 5.24199,-14.44606 7.9267,-21.73313c1.40608,-3.96303 2.55622,-6.26426 4.09079,-7.67045c40.01372,-4.091 45.25571,1.27843 45.89503,2.42899c0,0.38349 0.12744,0.76697 0.12744,1.15056c2.94065,-3.70741 4.47523,-7.03134 4.47523,-9.71595c0,-0.76708 -0.1285,-1.53415 -0.38443,-2.30123l0.1285,-0.12776c-0.38338,-0.89494 -0.89526,-1.78988 -1.79051,-2.55685c-1.40608,-1.40629 -4.09079,-2.55685 -8.56497,-2.94044c-4.34673,0.12786 -8.9494,0.38359 -13.93439,0.51145c-8.69346,0.38349 -19.94314,0.63921 -32.21657,1.15056c-6.00875,0 -11.88921,0.12786 -17.89774,0.63921c-2.0455,0.12776 -4.21876,0.38349 -6.39202,0.51135c-17.64223,1.0227 -33.11109,2.17326 -37.8412,3.57955c-13.29557,1.40629 -26.46327,3.06823 -39.50311,4.98584c-14.70182,2.0455 -16.61945,13.93471 -6.77562,24.03425c31.44909,-16.74729 65.8385,-17.89785 100.86744,-21.34954c-1.91795,3.70741 -2.94065,5.62495 -3.83549,8.05404c-2.94044,7.1591 -5.62505,14.3182 -8.56549,21.4774c-6.51989,0.12786 -13.03977,0.51135 -19.55976,1.40629c-8.56539,0.89483 -16.49156,2.42899 -23.26717,7.41461c-5.62505,4.09079 -6.64775,10.22804 -2.68471,13.80695c2.94034,-1.40608 4.98584,-3.19554 7.92617,-4.09079c10.86662,-3.45147 21.98885,-5.88025 33.36671,-7.79821c-2.52673,6.43215 -5.02776,12.76003 -7.49129,19.09002h15.20808c2.47817,-6.98194 4.96572,-13.97336 7.49687,-21.00797c4.60162,-0.51082 9.33173,-0.89473 14.31777,-1.15046zM342.67513,280.31569h-7.70236c3.74428,-4.93655 6.83975,-10.2986 9.28749,-16.08512c0.56173,-1.32779 1.08344,-2.6647 1.56512,-4.01075l0.2749,-0.2612l0.26015,-0.28754l0.23698,-0.30544l0.21381,-0.32229l0.18958,-0.33799l0.16325,-0.35105l0.13587,-0.36179l0.26858,-0.80541l0.13166,-0.4867l0.08321,-0.49745l0.03476,-0.50303l-0.01475,-0.50408l-0.06425,-0.50008l-0.0811,-0.35157c1.67571,-6.27774 2.51409,-12.74455 2.51409,-19.4003c0,-2.2492 -0.09585,-4.47681 -0.28754,-6.68282l2.34241,0.79952l0.85734,0.30849l0.38865,0.12281l0.39707,0.09163l0.40234,0.05993l0.4076,0.0277l0.40655,-0.00463l0.40655,-0.03686l0.40129,-0.06888l0.37074,-0.09416c0.11796,1.81252 0.17694,3.63832 0.17694,5.47728c0,11.0543 -2.13598,21.63075 -6.40687,31.72913c-2.03837,4.82034 -4.49173,9.36789 -7.36006,13.64265zM214.88715,280.31569h-7.70204c-2.86812,-4.27476 -5.32158,-8.82231 -7.36037,-13.64265c-2.63511,-6.23007 -4.45737,-12.64214 -5.46677,-19.23621l0.3582,-0.02728l0.39134,-0.06046l0.38556,-0.09037l0.37744,-0.11986l0.36705,-0.1484l1.65555,-0.74527l2.47162,-1.09421c0.8822,6.55443 2.62721,12.91433 5.23493,19.07959c2.44766,5.78721 5.54349,11.14892 9.28749,16.08512z" data-paper-data="{&quot;isPathIcon&quot;:true}"></path></g><g><path d="M174.09014,309.5065c-0.55583,0 -0.83375,-0.27792 -0.83375,-0.83375v-6.5658c0,-0.24318 0.07816,-0.45162 0.23449,-0.62531c0.15633,-0.1737 0.35608,-0.26055 0.59926,-0.26055c0.24318,0 0.45162,0.08685 0.62531,0.26055c0.1737,0.1737 0.26055,0.38214 0.26055,0.62531v5.67993h13.39214c0.24318,0 0.44293,0.08685 0.59926,0.26055c0.15633,0.1737 0.23449,0.38214 0.23449,0.62531c0,0.55583 -0.27792,0.83375 -0.83375,0.83375zM173.98592,294.39475c-0.55583,0 -0.83375,-0.29529 -0.83375,-0.88586c0,-0.55583 0.27792,-0.83375 0.83375,-0.83375h14.69487c0.24318,0 0.45162,0.07816 0.62531,0.23449c0.1737,0.15633 0.26055,0.35608 0.26055,0.59926c0,0.27792 -0.08685,0.49504 -0.26055,0.65137c-0.1737,0.15633 -0.38214,0.23449 -0.62531,0.23449zM173.25639,328.42225v-15.16386c0,-0.27792 0.06948,-0.48636 0.20844,-0.62531c0.24318,-0.1737 0.45162,-0.26055 0.62531,-0.26055h12.03729c0.24318,0 0.45162,0.07816 0.62531,0.23449c0.1737,0.15633 0.26055,0.37345 0.26055,0.65137c0,0.24318 -0.08685,0.44293 -0.26055,0.59926c-0.1737,0.15633 -0.38214,0.23449 -0.62531,0.23449h-11.15143v14.33011c0,0.24318 -0.08685,0.44293 -0.26055,0.59926c-0.1737,0.15633 -0.38214,0.23449 -0.62531,0.23449c-0.55583,0 -0.83375,-0.27792 -0.83375,-0.83375zM169.40029,329.256c-0.55583,0 -0.83375,-0.27792 -0.83375,-0.83375v-30.27561c0,-0.55583 0.27792,-0.83375 0.83375,-0.83375h16.36238c0.59057,0 0.88586,0.27792 0.88586,0.83375c0,0.24318 -0.07816,0.45162 -0.23449,0.62531c-0.15633,0.1737 -0.37345,0.26055 -0.65137,0.26055h-15.47652v29.38975c0,0.24318 -0.08685,0.44293 -0.26055,0.59926c-0.1737,0.15633 -0.38214,0.23449 -0.62531,0.23449zM188.99345,297.26077c0.24318,0.06948 0.42556,0.21712 0.54715,0.44293c0.12159,0.22581 0.13027,0.47767 0.02605,0.75559c-0.10422,0.41688 -0.39951,0.62531 -0.88586,0.62531c-0.38214,-0.10422 -0.64268,-0.26923 -0.78164,-0.49504c-0.13896,-0.22581 -0.1737,-0.4603 -0.10422,-0.70348v-0.05211c0.1737,-0.41688 0.46899,-0.62531 0.88586,-0.62531c0.13896,0 0.24318,0.01737 0.31266,0.05211z" data-paper-data="{&quot;glyphName&quot;:&quot;F&quot;,&quot;glyphIndex&quot;:0,&quot;firstGlyphOfWord&quot;:true,&quot;word&quot;:1}" fill-rule="nonzero"></path><path d="M194.77761,329.256c-0.69479,-0.20844 -0.95534,-0.59057 -0.78164,-1.14641l12.81893,-34.44437c0.1737,-0.38214 0.45162,-0.5732 0.83375,-0.5732h0.72953c0.38214,0 0.66005,0.19107 0.83375,0.5732l6.20103,18.91574c0.06948,0.24318 0.05211,0.46899 -0.05211,0.67742c-0.10422,0.20844 -0.27792,0.3474 -0.52109,0.41688c-0.06948,0 -0.1129,0.00868 -0.13027,0.02605c-0.01737,0.01737 -0.06079,0.02605 -0.13027,0.02605c-0.38214,0 -0.66005,-0.20844 -0.83375,-0.62531l-5.78415,-17.61301l-12.34995,33.24585c-0.1737,0.3474 -0.45162,0.52109 -0.83375,0.52109zM224.27157,329.256c-0.38214,0 -0.66005,-0.1737 -0.83375,-0.52109l-4.16876,-11.35987h-11.56831c-0.27792,0 -0.49504,-0.08685 -0.65137,-0.26055c-0.15633,-0.1737 -0.23449,-0.38214 -0.23449,-0.62531c0,-0.55583 0.29529,-0.83375 0.88586,-0.83375h12.19362c0.3474,0 0.60794,0.15633 0.78164,0.46899l4.3772,11.98518c0.1737,0.55583 0,0.9206 -0.52109,1.0943zM200.61387,326.49419c-0.69479,-0.20844 -0.95534,-0.59057 -0.78164,-1.14641l7.24322,-21.36489c0.20844,-0.38214 0.48636,-0.5732 0.83375,-0.5732c0.06948,0 0.12159,0.00868 0.15633,0.02605c0.03474,0.01737 0.06948,0.02605 0.10422,0.02605c0.24318,0.06948 0.41688,0.21712 0.52109,0.44293c0.10422,0.22581 0.12159,0.44293 0.05211,0.65137l-7.29533,21.36489c-0.1737,0.38214 -0.45162,0.5732 -0.83375,0.5732zM218.69586,326.44209c-0.41688,0 -0.67742,-0.19107 -0.78164,-0.5732l-1.30274,-3.90821h-10.36979c-0.24318,0 -0.44293,-0.08685 -0.59926,-0.26055c-0.15633,-0.1737 -0.23449,-0.38214 -0.23449,-0.62531c0,-0.55583 0.27792,-0.83375 0.83375,-0.83375h10.9951c0.38214,0 0.66005,0.19107 0.83375,0.5732l1.45907,4.53353c0.06948,0.20844 0.05211,0.41688 -0.05211,0.62531c-0.10422,0.20844 -0.27792,0.3474 -0.52109,0.41688zM218.53953,313.67526c-0.38214,0 -0.66005,-0.19107 -0.83375,-0.5732l-5.21095,-15.99761c-0.1737,-0.55583 0,-0.9206 0.52109,-1.0943c0.06948,-0.03474 0.15633,-0.05211 0.26055,-0.05211c0.41688,0 0.69479,0.19107 0.83375,0.5732l5.26306,15.99761c0.06948,0.24318 0.05211,0.46899 -0.05211,0.67742c-0.10422,0.20844 -0.27792,0.3474 -0.52109,0.41688zM199.6759,329.36022c-0.38214,-0.10422 -0.64268,-0.26923 -0.78164,-0.49504c-0.13896,-0.22581 -0.1737,-0.47767 -0.10422,-0.75559c0.1737,-0.45162 0.46899,-0.67742 0.88586,-0.67742c0.06948,0 0.12159,0.00868 0.15633,0.02605c0.03474,0.01737 0.08685,0.02605 0.15633,0.02605c0.24318,0.10422 0.41688,0.26923 0.52109,0.49504c0.10422,0.22581 0.12159,0.4603 0.05211,0.70348v0.05211c-0.1737,0.41688 -0.46899,0.62531 -0.88586,0.62531z" data-paper-data="{&quot;glyphName&quot;:&quot;A&quot;,&quot;glyphIndex&quot;:1,&quot;word&quot;:1}" fill-rule="nonzero"></path><path d="M233.49495,329.256c-0.24318,0 -0.45162,-0.07816 -0.62531,-0.23449c-0.1737,-0.15633 -0.26055,-0.37345 -0.26055,-0.65137v-34.65281c0,-0.24318 0.08685,-0.44293 0.26055,-0.59926c0.1737,-0.15633 0.38214,-0.23449 0.62531,-0.23449h8.75439c1.59802,0 3.15262,0.13027 4.6638,0.39082c1.51118,0.26055 2.85734,0.73822 4.03849,1.43301c1.18115,0.69479 2.1278,1.65013 2.83997,2.86602c0.71216,1.21589 1.06824,2.77917 1.06824,4.68985c0,0.55583 -0.05211,1.0943 -0.15633,1.61539c-0.03474,0.27792 -0.14764,0.46899 -0.33871,0.5732c-0.19107,0.10422 -0.40819,0.15633 -0.65137,0.15633c-0.24318,-0.06948 -0.43425,-0.19107 -0.5732,-0.36477c-0.13896,-0.1737 -0.1737,-0.38214 -0.10422,-0.62531c0.03474,-0.20844 0.06079,-0.42556 0.07816,-0.65137c0.01737,-0.22581 0.02605,-0.4603 0.02605,-0.70348c0,-1.63276 -0.31266,-2.95287 -0.93797,-3.96032c-0.62531,-1.00745 -1.45907,-1.78041 -2.50126,-2.31887c-1.04219,-0.53846 -2.20597,-0.90323 -3.49134,-1.0943c-1.28537,-0.19107 -2.60547,-0.2866 -3.96032,-0.2866h-7.92064v33.76695c0,0.59057 -0.27792,0.88586 -0.83375,0.88586zM245.58435,329.256h-7.45166c-0.55583,0 -0.83375,-0.27792 -0.83375,-0.83375c0,-0.24318 0.07816,-0.45162 0.23449,-0.62531c0.15633,-0.1737 0.35608,-0.26055 0.59926,-0.26055h7.45166c2.84865,0 5.0112,-0.81638 6.48763,-2.44915c1.47644,-1.63276 2.21465,-3.8561 2.21465,-6.67001c0,-2.95287 -0.75559,-5.16752 -2.26676,-6.64396c-1.51118,-1.47644 -3.72583,-2.21465 -6.64396,-2.21465h-3.23079c-0.24318,0 -0.45162,-0.07816 -0.62531,-0.23449c-0.1737,-0.15633 -0.26055,-0.35608 -0.26055,-0.59926c0,-0.24318 0.08685,-0.45162 0.26055,-0.62531c0.1737,-0.1737 0.38214,-0.26055 0.62531,-0.26055h3.23079c3.36975,0 5.98391,0.90323 7.84248,2.70969c1.85857,1.80646 2.78786,4.42931 2.78786,7.86853c0,3.30027 -0.90323,5.9318 -2.70969,7.89459c-1.80646,1.96279 -4.3772,2.94419 -7.7122,2.94419zM244.22951,324.61825h-6.14892c-0.55583,0 -0.83375,-0.29529 -0.83375,-0.88586v-25.58576c0,-0.55583 0.27792,-0.83375 0.83375,-0.83375h5.31517c1.45907,0 2.62284,0.19107 3.49134,0.5732c0.86849,0.38214 1.53723,0.85981 2.00622,1.43301c0.46899,0.5732 0.77296,1.18115 0.91192,1.82383c0.13896,0.64268 0.20844,1.22457 0.20844,1.74567c0,0.20844 -0.00868,0.48636 -0.02605,0.83375c-0.01737,0.3474 -0.07816,0.69479 -0.18238,1.04219c-0.10422,0.3474 -0.24318,0.64268 -0.41688,0.88586c-0.1737,0.24318 -0.39951,0.36477 -0.67742,0.36477c-0.1737,0 -0.29529,-0.01737 -0.36477,-0.05211c-0.20844,-0.10422 -0.35608,-0.26923 -0.44293,-0.49504c-0.08685,-0.22581 -0.07816,-0.44293 0.02605,-0.65137c0.24318,-0.52109 0.36477,-1.16378 0.36477,-1.92805c0,-1.52854 -0.46899,-2.55336 -1.40696,-3.07446c-0.93797,-0.52109 -2.10175,-0.78164 -3.49134,-0.78164h-4.42931v23.86614h5.26306c0.83375,0 1.59802,-0.03474 2.29282,-0.10422c0.69479,-0.06948 1.28537,-0.24318 1.77172,-0.52109c0.48636,-0.27792 0.85981,-0.69479 1.12035,-1.25063c0.26055,-0.55583 0.39082,-1.32011 0.39082,-2.29282c0,-0.97271 -0.13027,-1.75435 -0.39082,-2.34493c-0.26055,-0.59057 -0.64268,-1.05956 -1.14641,-1.40696c-0.50373,-0.3474 -1.0943,-0.58189 -1.77172,-0.70348c-0.67742,-0.12159 -1.43301,-0.18238 -2.26676,-0.18238h-2.08438c-0.24318,0 -0.44293,-0.08685 -0.59926,-0.26055c-0.15633,-0.1737 -0.23449,-0.38214 -0.23449,-0.62531c0,-0.55583 0.27792,-0.83375 0.83375,-0.83375h2.08438c1.07693,0 2.05832,0.10422 2.94419,0.31266c0.88586,0.20844 1.65013,0.56452 2.29282,1.06824c0.64268,0.50373 1.14641,1.15509 1.51118,1.95411c0.36477,0.79901 0.54715,1.80646 0.54715,3.02235c0,1.25063 -0.18238,2.25808 -0.54715,3.02235c-0.36477,0.76427 -0.86849,1.36353 -1.51118,1.79778c-0.64268,0.43425 -1.40696,0.72085 -2.29282,0.85981c-0.88586,0.13896 -1.86726,0.20844 -2.94419,0.20844zM252.93179,307.42212c-0.41688,-0.10422 -0.69479,-0.26923 -0.83375,-0.49504c-0.13896,-0.22581 -0.15633,-0.47767 -0.05211,-0.75559c0.10422,-0.41688 0.39951,-0.62531 0.88586,-0.62531c0.13896,0 0.24318,0.01737 0.31266,0.05211c0.24318,0.06948 0.41688,0.21712 0.52109,0.44293c0.10422,0.22581 0.12159,0.47767 0.05211,0.75559c-0.1737,0.41688 -0.46899,0.62531 -0.88586,0.62531z" data-paper-data="{&quot;glyphName&quot;:&quot;B&quot;,&quot;glyphIndex&quot;:2,&quot;word&quot;:1}" fill-rule="nonzero"></path><path d="M271.6391,318.41722c0.55583,0 0.83375,0.27792 0.83375,0.83375v9.06705c0,0.59057 -0.27792,0.88586 -0.83375,0.88586c-0.24318,0 -0.45162,-0.07816 -0.62531,-0.23449c-0.1737,-0.15633 -0.26055,-0.37345 -0.26055,-0.65137v-9.06705c0,-0.24318 0.08685,-0.44293 0.26055,-0.59926c0.1737,-0.15633 0.38214,-0.23449 0.62531,-0.23449zM282.21732,325.3999c0.13896,0.1737 0.18238,0.38214 0.13027,0.62531c-0.05211,0.24318 -0.16501,0.43425 -0.33871,0.5732c-0.13896,0.10422 -0.31266,0.15633 -0.52109,0.15633c-0.27792,0 -0.50373,-0.13896 -0.67742,-0.41688l-10.10924,-15.00753c-0.31266,-0.48636 -0.22581,-0.88586 0.26055,-1.19852c0.10422,-0.10422 0.26055,-0.15633 0.46899,-0.15633c0.24318,0 0.48636,0.12159 0.72953,0.36477zM267.88721,298.82406v29.49397c0,0.59057 -0.27792,0.88586 -0.83375,0.88586c-0.59057,0 -0.88586,-0.29529 -0.88586,-0.88586v-30.32772c0,-0.24318 0.07816,-0.45162 0.23449,-0.62531c0.15633,-0.1737 0.37345,-0.26055 0.65137,-0.26055h10.36979c1.25063,0 2.40572,0.1129 3.46528,0.33871c1.05956,0.22581 1.96279,0.61663 2.70969,1.17246c0.7469,0.55583 1.32879,1.29405 1.74567,2.21465c0.41688,0.9206 0.62531,2.07569 0.62531,3.46528c0,4.89829 -2.74443,7.34744 -8.2333,7.34744h-1.61539c-0.24318,0 -0.45162,-0.08685 -0.62531,-0.26055c-0.1737,-0.1737 -0.26055,-0.38214 -0.26055,-0.62531c0,-0.24318 0.08685,-0.44293 0.26055,-0.59926c0.1737,-0.15633 0.38214,-0.23449 0.62531,-0.23449h1.61539c2.0149,0 3.60424,-0.39951 4.76802,-1.19852c1.16378,-0.79901 1.74567,-2.27545 1.74567,-4.42931c0,-1.11167 -0.16501,-2.02358 -0.49504,-2.73575c-0.33003,-0.71216 -0.79033,-1.268 -1.3809,-1.6675c-0.59057,-0.39951 -1.31142,-0.67742 -2.16254,-0.83375c-0.85112,-0.15633 -1.78041,-0.23449 -2.78786,-0.23449zM280.60193,315.49909l8.44174,12.34995c0.31266,0.48636 0.24318,0.88586 -0.20844,1.19852c-0.13896,0.10422 -0.29529,0.15633 -0.46899,0.15633c-0.31266,0 -0.55583,-0.12159 -0.72953,-0.36477l-9.27549,-13.65269c-0.20844,-0.24318 -0.22581,-0.53846 -0.05211,-0.88586c0.1737,-0.31266 0.43425,-0.46899 0.78164,-0.46899c1.45907,0 2.79654,-0.22581 4.01243,-0.67742c1.21589,-0.45162 2.25808,-1.0943 3.12657,-1.92805c0.86849,-0.83375 1.53723,-1.8412 2.00622,-3.02235c0.46899,-1.18115 0.70348,-2.51863 0.70348,-4.01243c0,-3.33501 -0.83375,-5.74073 -2.50126,-7.21716c-1.6675,-1.47644 -4.11665,-2.21465 -7.34744,-2.21465h-7.39955c-0.55583,0 -0.83375,-0.29529 -0.83375,-0.88586c0,-0.55583 0.27792,-0.83375 0.83375,-0.83375h7.39955c3.6824,0 6.53106,0.89455 8.54596,2.68364c2.0149,1.78909 3.02235,4.61169 3.02235,8.46779c0,3.19605 -0.89455,5.77547 -2.68364,7.73826c-1.78909,1.96279 -4.24692,3.15262 -7.37349,3.5695zM283.41584,327.38006c0.27792,0.06948 0.46899,0.21712 0.5732,0.44293c0.10422,0.22581 0.12159,0.47767 0.05211,0.75559h-0.05211c-0.10422,0.41688 -0.39951,0.62531 -0.88586,0.62531c-0.38214,-0.10422 -0.64268,-0.26923 -0.78164,-0.49504c-0.13896,-0.22581 -0.1737,-0.4603 -0.10422,-0.70348v-0.05211c0.1737,-0.41688 0.46899,-0.62531 0.88586,-0.62531c0.13896,0 0.24318,0.01737 0.31266,0.05211z" data-paper-data="{&quot;glyphName&quot;:&quot;R&quot;,&quot;glyphIndex&quot;:3,&quot;word&quot;:1}" fill-rule="nonzero"></path><path d="M303.47799,325.50411v-13.49636h-3.90821c-0.55583,0 -0.83375,-0.27792 -0.83375,-0.83375v-17.45668c0,-0.24318 0.07816,-0.45162 0.23449,-0.62531c0.15633,-0.1737 0.35608,-0.26055 0.59926,-0.26055c0.24318,0 0.45162,0.08685 0.62531,0.26055c0.1737,0.1737 0.26055,0.38214 0.26055,0.62531v16.57082h3.8561c0.24318,0 0.45162,0.08685 0.62531,0.26055c0.1737,0.1737 0.26055,0.38214 0.26055,0.62531v14.33011c0,0.24318 -0.08685,0.44293 -0.26055,0.59926c-0.1737,0.15633 -0.38214,0.23449 -0.62531,0.23449c-0.55583,0 -0.83375,-0.27792 -0.83375,-0.83375zM298.78814,315.86386c0,-0.55583 0.27792,-0.83375 0.83375,-0.83375c0.59057,0 0.88586,0.27792 0.88586,0.83375v12.6105c0,0.55583 -0.29529,0.83375 -0.88586,0.83375c-0.55583,0 -0.83375,-0.27792 -0.83375,-0.83375zM305.1976,306.53626c0,0.24318 -0.08685,0.44293 -0.26055,0.59926c-0.1737,0.15633 -0.38214,0.23449 -0.62531,0.23449c-0.55583,0 -0.83375,-0.27792 -0.83375,-0.83375v-8.96283c0,-0.24318 0.07816,-0.45162 0.23449,-0.62531c0.15633,-0.1737 0.35608,-0.26055 0.59926,-0.26055c0.24318,0 0.45162,0.08685 0.62531,0.26055c0.1737,0.1737 0.26055,0.38214 0.26055,0.62531zM303.99909,329.30811c-0.24318,-0.06948 -0.41688,-0.22581 -0.52109,-0.46899c-0.10422,-0.24318 -0.12159,-0.48636 -0.05211,-0.72953v-0.05211c0.1737,-0.41688 0.46899,-0.62531 0.88586,-0.62531c0.06948,0 0.12159,0.00868 0.15633,0.02605c0.03474,0.01737 0.08685,0.02605 0.15633,0.02605c0.27792,0.06948 0.46899,0.22581 0.5732,0.46899c0.10422,0.24318 0.10422,0.48636 0,0.72953v0.05211c-0.10422,0.41688 -0.39951,0.62531 -0.88586,0.62531z" data-paper-data="{&quot;glyphName&quot;:&quot;I&quot;,&quot;glyphIndex&quot;:4,&quot;word&quot;:1}" fill-rule="nonzero"></path><path d="M317.02646,307.63056c-0.72953,-0.20844 -1.00745,-0.59057 -0.83375,-1.14641c0.41688,-1.25063 1.00745,-2.41441 1.77172,-3.49134c0.76427,-1.07693 1.65013,-2.0149 2.65758,-2.81391c1.00745,-0.79901 2.1278,-1.41564 3.36106,-1.84989c1.23326,-0.43425 2.52731,-0.65137 3.88216,-0.65137c1.73698,0 3.36975,0.35608 4.89829,1.06824c1.52854,0.71216 2.86602,1.71093 4.01243,2.9963c0.1737,0.1737 0.25186,0.37345 0.23449,0.59926c-0.01737,0.22581 -0.1129,0.42556 -0.2866,0.59926c-0.13896,0.13896 -0.33003,0.20844 -0.5732,0.20844c-0.24318,0 -0.45162,-0.08685 -0.62531,-0.26055c-1.00745,-1.11167 -2.17123,-1.97148 -3.49134,-2.57942c-1.32011,-0.60794 -2.70969,-0.91192 -4.16876,-0.91192c-1.18115,0 -2.3015,0.19107 -3.36106,0.5732c-1.05956,0.38214 -2.02358,0.9206 -2.89208,1.61539c-0.86849,0.69479 -1.62408,1.50249 -2.26676,2.42309c-0.64268,0.9206 -1.13772,1.93674 -1.48512,3.0484c-0.1737,0.38214 -0.45162,0.5732 -0.83375,0.5732zM327.86523,324.46192c-1.73698,0 -3.33501,-0.33871 -4.79407,-1.01613c-1.45907,-0.67742 -2.73575,-1.58934 -3.83005,-2.73575c-1.0943,-1.14641 -1.97148,-2.4752 -2.63153,-3.98638c-0.66005,-1.51118 -1.02482,-3.10051 -1.0943,-4.76802h-3.33501c-0.55583,0 -0.83375,-0.27792 -0.83375,-0.83375c0,-2.3623 0.40819,-4.63774 1.22457,-6.82634c0.81638,-2.1886 1.96279,-4.12533 3.43923,-5.81021c1.47644,-1.68487 3.23079,-3.03972 5.26306,-4.06454c2.03227,-1.02482 4.26429,-1.53723 6.69607,-1.53723c1.77172,0 3.46528,0.2866 5.08067,0.85981c1.61539,0.5732 3.09183,1.37222 4.42931,2.39704c1.33748,1.02482 2.51863,2.24071 3.54344,3.64766c1.02482,1.40696 1.83252,2.92682 2.42309,4.55958c0.06948,0.24318 0.06079,0.47767 -0.02605,0.70348c-0.08685,0.22581 -0.25186,0.37345 -0.49504,0.44293c-0.03474,0 -0.06948,0.00868 -0.10422,0.02605c-0.03474,0.01737 -0.08685,0.02605 -0.15633,0.02605c-0.3474,0 -0.62531,-0.19107 -0.83375,-0.5732c-0.52109,-1.45907 -1.24194,-2.8226 -2.16254,-4.09059c-0.9206,-1.268 -1.98016,-2.37098 -3.17868,-3.30895c-1.19852,-0.93797 -2.51863,-1.6675 -3.96032,-2.1886c-1.4417,-0.52109 -2.96156,-0.78164 -4.55958,-0.78164c-2.11912,0 -4.07322,0.43425 -5.86232,1.30274c-1.78909,0.86849 -3.33501,2.03227 -4.63774,3.49134c-1.30274,1.45907 -2.33624,3.12657 -3.10051,5.00251c-0.76427,1.87594 -1.19852,3.82136 -1.30274,5.83626h3.2829c0.24318,0 0.44293,0.08685 0.59926,0.26055c0.15633,0.1737 0.23449,0.38214 0.23449,0.62531c0,1.49381 0.26055,2.94419 0.78164,4.35114c0.52109,1.40696 1.25063,2.6489 2.1886,3.72583c0.93797,1.07693 2.06701,1.93674 3.38712,2.57942c1.32011,0.64268 2.7618,0.96403 4.32509,0.96403c2.04964,0 3.92558,-0.55583 5.62782,-1.6675c1.70224,-1.11167 3.00498,-2.65758 3.90821,-4.63774c0.1737,-0.31266 0.43425,-0.46899 0.78164,-0.46899c0.13896,0 0.26055,0.01737 0.36477,0.05211c0.20844,0.10422 0.3474,0.26923 0.41688,0.49504c0.06948,0.22581 0.06948,0.44293 0,0.65137c-1.04219,2.1886 -2.54468,3.95164 -4.50747,5.28911c-1.96279,1.33748 -4.16007,2.00622 -6.59185,2.00622zM327.96945,329.36022c-1.87594,0 -3.6824,-0.33003 -5.41939,-0.99008c-1.73698,-0.66005 -3.31764,-1.58934 -4.74196,-2.78786c-1.42433,-1.19852 -2.6489,-2.63153 -3.67372,-4.29903c-1.02482,-1.6675 -1.78041,-3.49134 -2.26676,-5.4715c-0.06948,-0.24318 -0.03474,-0.4603 0.10422,-0.65137c0.13896,-0.19107 0.33003,-0.32134 0.5732,-0.39082c0.20844,0 0.41688,0.04342 0.62531,0.13027c0.20844,0.08685 0.33003,0.25186 0.36477,0.49504c0.41688,1.6675 1.06824,3.24816 1.95411,4.74196c0.88586,1.49381 1.95411,2.79654 3.20473,3.90821c1.25063,1.11167 2.65758,1.98885 4.22087,2.63153c1.56328,0.64268 3.24816,0.96403 5.05462,0.96403c1.59802,0 3.13525,-0.26923 4.61169,-0.8077c1.47644,-0.53846 2.83128,-1.29405 4.06454,-2.26676c1.23326,-0.97271 2.31887,-2.13649 3.25684,-3.49134c0.93797,-1.35485 1.6675,-2.86602 2.1886,-4.53353c0.10422,-0.41688 0.38214,-0.62531 0.83375,-0.62531c0.03474,0 0.06948,0.00868 0.10422,0.02605c0.03474,0.01737 0.08685,0.02605 0.15633,0.02605c0.48636,0.1737 0.67742,0.53846 0.5732,1.0943c-0.59057,1.8412 -1.40696,3.51739 -2.44915,5.02857c-1.04219,1.51118 -2.25808,2.80523 -3.64766,3.88216c-1.38959,1.07693 -2.90945,1.91068 -4.55958,2.50126c-1.65013,0.59057 -3.36106,0.88586 -5.13278,0.88586zM337.81814,305.59829c-0.38214,-0.10422 -0.64268,-0.26923 -0.78164,-0.49504c-0.13896,-0.22581 -0.1737,-0.47767 -0.10422,-0.75559c0.1737,-0.41688 0.46899,-0.62531 0.88586,-0.62531c0.13896,0 0.24318,0.01737 0.31266,0.05211c0.24318,0.06948 0.41688,0.21712 0.52109,0.44293c0.10422,0.22581 0.12159,0.47767 0.05211,0.75559c-0.13896,0.41688 -0.43425,0.62531 -0.88586,0.62531z" data-paper-data="{&quot;glyphName&quot;:&quot;C&quot;,&quot;glyphIndex&quot;:5,&quot;word&quot;:1}" fill-rule="nonzero"></path><path d="M347.71894,310.86135c0,-1.6675 0.21712,-3.31764 0.65137,-4.9504c0.43425,-1.63276 1.05956,-3.16999 1.87594,-4.61169c0.81638,-1.4417 1.81515,-2.75312 2.9963,-3.93427c1.18115,-1.18115 2.51863,-2.15386 4.01243,-2.91813c0.06948,-0.06948 0.20844,-0.10422 0.41688,-0.10422c0.31266,0 0.55583,0.13896 0.72953,0.41688c0.13896,0.24318 0.16501,0.47767 0.07816,0.70348c-0.08685,0.22581 -0.23449,0.39082 -0.44293,0.49504c-1.35485,0.72953 -2.57073,1.62408 -3.64766,2.68364c-1.07693,1.05956 -1.98016,2.24071 -2.70969,3.54344c-0.72953,1.30274 -1.28537,2.69232 -1.6675,4.16876c-0.38214,1.47644 -0.5732,2.97893 -0.5732,4.50747c0,2.11912 0.37345,4.17744 1.12035,6.17497c0.7469,1.99753 1.78909,3.76057 3.12657,5.28911c1.33748,1.52854 2.9355,2.75312 4.79407,3.67372c1.85857,0.9206 3.89953,1.3809 6.12286,1.3809c2.22334,0 4.25561,-0.4603 6.09681,-1.3809c1.8412,-0.9206 3.43054,-2.15386 4.76802,-3.69977c1.33748,-1.54591 2.37967,-3.30895 3.12657,-5.28911c0.7469,-1.98016 1.12035,-4.0298 1.12035,-6.14892c0,-2.04964 -0.3474,-4.03849 -1.04219,-5.96654c-0.69479,-1.92805 -1.6675,-3.64766 -2.91813,-5.15884c-1.25063,-1.51118 -2.75312,-2.75312 -4.50747,-3.72583c-1.75435,-0.97271 -3.69109,-1.52854 -5.81021,-1.6675v3.69977c0,0.55583 -0.27792,0.83375 -0.83375,0.83375c-1.59802,0 -3.05709,0.33003 -4.3772,0.99008c-1.32011,0.66005 -2.44046,1.54591 -3.36106,2.65758c-0.9206,1.11167 -1.63276,2.37967 -2.13649,3.80399c-0.50373,1.42433 -0.75559,2.90076 -0.75559,4.42931c0,1.49381 0.25186,2.95287 0.75559,4.3772c0.50373,1.42433 1.22457,2.69232 2.16254,3.80399c0.93797,1.11167 2.05832,1.99753 3.36106,2.65758c1.30274,0.66005 2.75312,0.99008 4.35114,0.99008c1.59802,0 3.05709,-0.33003 4.3772,-0.99008c1.32011,-0.66005 2.44915,-1.53723 3.38712,-2.63153c0.93797,-1.0943 1.65882,-2.35361 2.16254,-3.77794c0.50373,-1.42433 0.75559,-2.90076 0.75559,-4.42931c0,-2.50126 -0.59926,-4.74196 -1.79778,-6.72212c-1.19852,-1.98016 -2.8226,-3.42186 -4.87224,-4.32509c-0.20844,-0.06948 -0.35608,-0.21712 -0.44293,-0.44293c-0.08685,-0.22581 -0.07816,-0.44293 0.02605,-0.65137c0.10422,-0.3474 0.36477,-0.52109 0.78164,-0.52109c0.13896,0 0.24318,0.01737 0.31266,0.05211c1.18115,0.52109 2.24071,1.2072 3.17868,2.05832c0.93797,0.85112 1.74567,1.82383 2.42309,2.91813c0.67742,1.0943 1.19852,2.28413 1.56328,3.5695c0.36477,1.28537 0.54715,2.64021 0.54715,4.06454c0,1.77172 -0.30397,3.47397 -0.91192,5.10673c-0.60794,1.63276 -1.45038,3.07446 -2.52731,4.32509c-1.07693,1.25063 -2.37967,2.24939 -3.90821,2.9963c-1.52854,0.7469 -3.21342,1.12035 -5.05462,1.12035c-1.8412,0 -3.51739,-0.38214 -5.02857,-1.14641c-1.51118,-0.76427 -2.81391,-1.77172 -3.90821,-3.02235c-1.0943,-1.25063 -1.93674,-2.69232 -2.52731,-4.32509c-0.59057,-1.63276 -0.88586,-3.31764 -0.88586,-5.05462c0,-1.6675 0.26923,-3.29158 0.8077,-4.87224c0.53846,-1.58065 1.31142,-2.98761 2.31887,-4.22087c1.00745,-1.23326 2.21465,-2.25808 3.62161,-3.07446c1.40696,-0.81638 2.97893,-1.27668 4.71591,-1.3809v-3.75188c0,-0.55583 0.29529,-0.83375 0.88586,-0.83375c2.46652,0 4.72459,0.51241 6.77423,1.53723c2.04964,1.02482 3.82136,2.37967 5.31517,4.06454c1.49381,1.68487 2.65758,3.62161 3.49134,5.81021c0.83375,2.1886 1.25063,4.46405 1.25063,6.82634c0,2.3623 -0.41688,4.64643 -1.25063,6.8524c-0.83375,2.20597 -1.99753,4.15139 -3.49134,5.83626c-1.49381,1.68487 -3.27421,3.03104 -5.34122,4.03849c-2.06701,1.00745 -4.3164,1.51118 -6.74818,1.51118c-2.46652,0 -4.73328,-0.50373 -6.80029,-1.51118c-2.06701,-1.00745 -3.84742,-2.35361 -5.34122,-4.03849c-1.49381,-1.68487 -2.65758,-3.63029 -3.49134,-5.83626c-0.83375,-2.20597 -1.25063,-4.4901 -1.25063,-6.8524zM359.49569,293.76944c0.10422,-0.41688 0.39951,-0.62531 0.88586,-0.62531c0.13896,0 0.24318,0.01737 0.31266,0.05211c0.24318,0.06948 0.41688,0.22581 0.52109,0.46899c0.10422,0.24318 0.12159,0.48636 0.05211,0.72953c-0.1737,0.45162 -0.46899,0.67742 -0.88586,0.67742c-0.41688,-0.13896 -0.69479,-0.32134 -0.83375,-0.54715c-0.13896,-0.22581 -0.15633,-0.4603 -0.05211,-0.70348z" data-paper-data="{&quot;glyphName&quot;:&quot;O&quot;,&quot;glyphIndex&quot;:6,&quot;lastGlyphOfWord&quot;:true,&quot;word&quot;:1}" fill-rule="nonzero"></path><path d="M162.1313,287.94749h-73.45838v2.1444h74.53089c0.07043,0 0.14019,-0.00667 0.20928,-0.02001c0.06902,-0.01404 0.13608,-0.03441 0.20117,-0.06109c0.06509,-0.02668 0.12692,-0.05968 0.18548,-0.099c0.05856,-0.03932 0.11273,-0.08391 0.16252,-0.13376c0.04978,-0.04985 0.09423,-0.10392 0.13334,-0.1622c0.03911,-0.05898 0.07215,-0.12077 0.09911,-0.18537c0.02696,-0.0653 0.04733,-0.13236 0.06109,-0.20117c0.01369,-0.06951 0.02054,-0.13938 0.02054,-0.2096v-4.41414h221.44797v4.41414c0,0.07022 0.00667,0.14008 0.02001,0.2096c0.01404,0.06881 0.03441,0.13587 0.06109,0.20117c0.02738,0.0646 0.06039,0.12639 0.099,0.18537c0.03932,0.05828 0.08391,0.11235 0.13376,0.1622c0.04985,0.04985 0.10392,0.09444 0.1622,0.13376c0.05898,0.03932 0.12077,0.07232 0.18537,0.099c0.0653,0.02668 0.13236,0.04704 0.20117,0.06109c0.06951,0.01334 0.13938,0.02001 0.2096,0.02001h74.53058v-2.1444h-73.45838v-4.41414c0,-0.07022 -0.00667,-0.14008 -0.02001,-0.2096c-0.01404,-0.06881 -0.03441,-0.13587 -0.06109,-0.20117c-0.02738,-0.0646 -0.06039,-0.12639 -0.099,-0.18537c-0.03932,-0.05828 -0.08391,-0.11235 -0.13376,-0.1622c-0.04985,-0.04985 -0.10392,-0.09444 -0.1622,-0.13376c-0.05898,-0.03862 -0.12077,-0.07162 -0.18537,-0.099c-0.0653,-0.02668 -0.13236,-0.04704 -0.20117,-0.06109c-0.06951,-0.01334 -0.13938,-0.02001 -0.2096,-0.02001h-223.59268c-0.07043,0 -0.14019,0.00667 -0.20928,0.02001c-0.06902,0.01404 -0.13608,0.03441 -0.20117,0.06109c-0.06509,0.02738 -0.12692,0.06039 -0.18548,0.099c-0.05856,0.03932 -0.11273,0.08391 -0.16252,0.13376c-0.04978,0.04985 -0.09423,0.10392 -0.13334,0.1622c-0.03911,0.05898 -0.07215,0.12077 -0.09911,0.18537c-0.02696,0.0653 -0.04733,0.13236 -0.06109,0.20117c-0.01369,0.06951 -0.02054,0.13938 -0.02054,0.2096z" fill-rule="evenodd"></path><path d="M387.8687,333.98365h73.45838v-2.1444h-74.53058c-0.07022,0 -0.14008,0.00667 -0.2096,0.02001c-0.06881,0.01404 -0.13587,0.03441 -0.20117,0.06109c-0.0646,0.02668 -0.12639,0.05968 -0.18537,0.099c-0.05828,0.03932 -0.11235,0.08391 -0.1622,0.13376c-0.04985,0.04985 -0.09444,0.10392 -0.13376,0.1622c-0.03862,0.05898 -0.07162,0.12077 -0.099,0.18537c-0.02668,0.0653 -0.04704,0.13236 -0.06109,0.20117c-0.01334,0.06951 -0.02001,0.13938 -0.02001,0.2096v4.41414h-221.44797v-4.41414c0,-0.07022 -0.00685,-0.14008 -0.02054,-0.2096c-0.01376,-0.06881 -0.03413,-0.13587 -0.06109,-0.20117c-0.02696,-0.0646 -0.06,-0.12639 -0.09911,-0.18537c-0.03911,-0.05828 -0.08356,-0.11235 -0.13334,-0.1622c-0.04978,-0.04985 -0.10396,-0.09444 -0.16252,-0.13376c-0.05856,-0.03932 -0.12039,-0.07232 -0.18548,-0.099c-0.06509,-0.02668 -0.13215,-0.04704 -0.20117,-0.06109c-0.06909,-0.01334 -0.13885,-0.02001 -0.20928,-0.02001h-74.53089v2.1444h73.45838v4.41414c0,0.07022 0.00685,0.14008 0.02054,0.2096c0.01376,0.06881 0.03413,0.13587 0.06109,0.20117c0.02696,0.0646 0.06,0.12639 0.09911,0.18537c0.03911,0.05828 0.08356,0.11235 0.13334,0.1622c0.04978,0.04985 0.10396,0.09444 0.16252,0.13376c0.05856,0.03862 0.12039,0.07162 0.18548,0.099c0.06509,0.02668 0.13215,0.04704 0.20117,0.06109c0.06909,0.01334 0.13885,0.02001 0.20928,0.02001h223.59268c0.07022,0 0.14008,-0.00667 0.2096,-0.02001c0.06881,-0.01404 0.13587,-0.03441 0.20117,-0.06109c0.0646,-0.02738 0.12639,-0.06039 0.18537,-0.099c0.05828,-0.03932 0.11235,-0.08391 0.1622,-0.13376c0.04985,-0.04985 0.09444,-0.10392 0.13376,-0.1622c0.03862,-0.05898 0.07162,-0.12077 0.099,-0.18537c0.02668,-0.0653 0.04704,-0.13236 0.06109,-0.20117c0.01334,-0.06951 0.02001,-0.13938 0.02001,-0.2096z" fill-rule="evenodd"></path></g><g data-paper-data="{&quot;isSecondaryText&quot;:true}" fill-rule="nonzero"><path d="M182.95272,191.49699c0.36982,0.16115 0.67569,0.39444 0.91763,0.69988c0.24194,0.30544 0.41685,0.64418 0.52476,1.01623c0.1079,0.37205 0.14706,0.76414 0.11748,1.17629c-0.02958,0.41215 -0.12678,0.80733 -0.29159,1.18555c-0.1172,0.26896 -0.2692,0.52025 -0.45601,0.75387c-0.18681,0.23362 -0.39754,0.44182 -0.6322,0.62459c-0.23466,0.18277 -0.48656,0.33053 -0.7557,0.44327c-0.26914,0.11274 -0.54885,0.18087 -0.83913,0.2044l0.01092,-0.61029c0.23726,-0.01662 0.46515,-0.07484 0.68365,-0.17464c0.2185,-0.0998 0.4203,-0.22439 0.6054,-0.37375c0.1851,-0.14936 0.34955,-0.32022 0.49338,-0.51257c0.14382,-0.19235 0.25968,-0.38938 0.34758,-0.5911c0.12086,-0.27736 0.19733,-0.57907 0.2294,-0.90512c0.03207,-0.32605 0.01231,-0.64219 -0.05927,-0.9484c-0.07158,-0.30622 -0.1993,-0.58689 -0.38315,-0.84202c-0.18385,-0.25513 -0.43547,-0.45228 -0.75486,-0.59145c-0.25215,-0.10987 -0.49082,-0.15887 -0.71601,-0.14699c-0.2252,0.01188 -0.4443,0.06142 -0.65731,0.14861c-0.21301,0.0872 -0.41416,0.20456 -0.60346,0.35209c-0.1893,0.14753 -0.37412,0.30201 -0.55448,0.46344c-0.1295,0.11358 -0.25361,0.23202 -0.37234,0.3553c-0.11872,0.12328 -0.24284,0.24171 -0.37234,0.3553c-0.24952,0.2513 -0.50222,0.48122 -0.7581,0.68974c-0.25588,0.20853 -0.51904,0.37638 -0.78947,0.50356c-0.27044,0.12718 -0.55618,0.19768 -0.85723,0.21151c-0.30105,0.01383 -0.62388,-0.05434 -0.96848,-0.2045c-0.35301,-0.15382 -0.65479,-0.36783 -0.90534,-0.64202c-0.25055,-0.27419 -0.4392,-0.58142 -0.56596,-0.92167c-0.12676,-0.34026 -0.18687,-0.70148 -0.18034,-1.08367c0.00653,-0.38219 0.08853,-0.75399 0.24602,-1.1154c0.18679,-0.42865 0.45924,-0.78997 0.81736,-1.08395c0.35812,-0.29398 0.75839,-0.4896 1.2008,-0.58684l-0.01092,0.61029c-0.32798,0.0871 -0.61937,0.24515 -0.87417,0.47415c-0.2548,0.229 -0.45179,0.50319 -0.59096,0.82258c-0.12452,0.28577 -0.18919,0.57761 -0.194,0.87554c-0.00481,0.29793 0.04403,0.58173 0.14654,0.85142c0.1025,0.26968 0.2509,0.51437 0.4452,0.73404c0.1943,0.21968 0.43013,0.38995 0.70749,0.51081c0.24374,0.10621 0.47821,0.15338 0.70341,0.1415c0.2252,-0.01188 0.4422,-0.06233 0.651,-0.15136c0.20881,-0.08903 0.40996,-0.20639 0.60346,-0.35209c0.1935,-0.1457 0.37622,-0.3011 0.54817,-0.46619c0.1211,-0.11725 0.24101,-0.23751 0.35973,-0.36079c0.11872,-0.12328 0.24284,-0.24171 0.37234,-0.3553c0.24952,-0.2513 0.50222,-0.48122 0.7581,-0.68974c0.25588,-0.20853 0.52114,-0.37546 0.79578,-0.50081c0.27464,-0.12535 0.56458,-0.19402 0.86984,-0.20602c0.30525,-0.012 0.63438,0.05892 0.98739,0.21274z" data-paper-data="{&quot;glyphName&quot;:&quot;S&quot;,&quot;glyphIndex&quot;:0,&quot;firstGlyphOfWord&quot;:true,&quot;word&quot;:1}"></path><path d="M191.64323,181.2899l-0.28051,0.4732l-4.18781,-2.4825l-3.17676,5.35898l4.18781,2.4825l-0.28051,0.4732l-8.87248,-5.25953l0.28051,-0.4732l4.18781,2.4825l3.17676,-5.35898l-4.18781,-2.4825l0.28051,-0.4732z" data-paper-data="{&quot;glyphName&quot;:&quot;H&quot;,&quot;glyphIndex&quot;:1,&quot;word&quot;:1}"></path><path d="M197.59535,165.06898c0.56857,0.46334 1.01329,1.0061 1.33414,1.62829c0.32086,0.62219 0.51437,1.27366 0.58053,1.9544c0.06617,0.68075 0.0017,1.35852 -0.1934,2.03333c-0.1951,0.67481 -0.52143,1.29295 -0.97897,1.85441c-0.46334,0.56857 -1.00433,1.01474 -1.62296,1.33849c-0.61864,0.32375 -1.268,0.52193 -1.94809,0.59455c-0.68009,0.07261 -1.35721,0.0146 -2.03136,-0.17406c-0.67415,-0.18865 -1.29551,-0.51465 -1.86409,-0.97799c-0.56147,-0.45755 -1.00441,-0.99886 -1.32881,-1.62395c-0.32441,-0.62509 -0.51792,-1.27655 -0.58053,-1.9544c-0.06261,-0.67785 0.00041,-1.35385 0.18906,-2.028c0.18865,-0.67415 0.51465,-1.29551 0.97799,-1.86409c0.45755,-0.56147 0.99886,-1.00441 1.62395,-1.32881c0.62509,-0.32441 1.2759,-0.52437 1.95243,-0.59988c0.67654,-0.07551 1.35365,-0.01749 2.03136,0.17406c0.6777,0.19155 1.29729,0.5161 1.85876,0.97364zM197.23047,165.51673c-0.50461,-0.41121 -1.05865,-0.70009 -1.66212,-0.86662c-0.60347,-0.16654 -1.20655,-0.21744 -1.80925,-0.15272c-0.6027,0.06472 -1.18243,0.24277 -1.7392,0.53415c-0.55677,0.29138 -1.03787,0.68582 -1.44329,1.18332c-0.41121,0.50461 -0.70331,1.05898 -0.8763,1.66311c-0.17299,0.60413 -0.23034,1.20787 -0.17207,1.81122c0.05827,0.60335 0.23132,1.18197 0.51914,1.73584c0.28782,0.55388 0.68404,1.03642 1.18865,1.44763c0.50461,0.41121 1.05865,0.70009 1.66212,0.86662c0.60347,0.16654 1.20655,0.21744 1.80925,0.15272c0.6027,-0.06472 1.18098,-0.24099 1.73486,-0.52882c0.55388,-0.28782 1.03642,-0.68404 1.44763,-1.18865c0.40542,-0.4975 0.69462,-1.04832 0.86761,-1.65245c0.17299,-0.60413 0.23034,-1.20787 0.17207,-1.81122c-0.05827,-0.60335 -0.22987,-1.18374 -0.5148,-1.74118c-0.28493,-0.55743 -0.67969,-1.04175 -1.1843,-1.45296z" data-paper-data="{&quot;glyphName&quot;:&quot;O&quot;,&quot;glyphIndex&quot;:2,&quot;word&quot;:1}"></path><path d="M204.85882,154.60901c0.26105,0.28307 0.44941,0.59888 0.56507,0.94743c0.11566,0.34855 0.16136,0.70239 0.1371,1.0615c-0.02426,0.35911 -0.11304,0.70913 -0.26633,1.05005c-0.15329,0.34092 -0.37484,0.64501 -0.66464,0.91228l-1.88037,1.73413l3.23518,3.50801l-0.40438,0.37293l-6.99247,-7.58215l2.28475,-2.10706c0.28981,-0.26727 0.6108,-0.46353 0.96299,-0.58877c0.35219,-0.12525 0.70978,-0.18377 1.07279,-0.17557c0.36301,0.0082 0.71355,0.08402 1.05162,0.22746c0.33807,0.14344 0.63763,0.3567 0.89869,0.63976zM204.42411,155.00991c-0.20511,-0.22241 -0.44316,-0.39262 -0.71413,-0.51064c-0.27097,-0.11802 -0.5491,-0.17956 -0.83438,-0.18461c-0.28528,-0.00505 -0.56786,0.04353 -0.84774,0.14575c-0.27988,0.10222 -0.5344,0.25899 -0.76355,0.47032l-1.88037,1.73413l2.97413,3.22494l1.88037,-1.73413c0.22915,-0.21133 0.40597,-0.45235 0.53047,-0.72306c0.1245,-0.27071 0.19575,-0.54844 0.21376,-0.8332c0.01801,-0.28475 -0.0193,-0.56526 -0.11194,-0.84151c-0.09263,-0.27625 -0.24151,-0.52558 -0.44662,-0.74799z" data-paper-data="{&quot;glyphName&quot;:&quot;P&quot;,&quot;glyphIndex&quot;:3,&quot;lastGlyphOfWord&quot;:true,&quot;word&quot;:1}"></path><path d="M223.93797,146.92012c0.21294,0.34262 0.33228,0.70833 0.35803,1.09713c0.02574,0.3888 -0.02259,0.76696 -0.14499,1.13449c-0.12241,0.36753 -0.31278,0.71254 -0.57113,1.03502c-0.25835,0.32248 -0.56273,0.59261 -0.91314,0.81039c-0.24918,0.15486 -0.51698,0.27543 -0.8034,0.36168c-0.28642,0.08626 -0.5781,0.138 -0.87504,0.15523c-0.29694,0.01723 -0.58819,-0.00416 -0.87376,-0.06416c-0.28557,-0.06 -0.55451,-0.16272 -0.80682,-0.30816l0.35548,-0.4962c0.20475,0.12102 0.42539,0.20249 0.66193,0.24438c0.23654,0.0419 0.47339,0.05392 0.71056,0.03605c0.23717,-0.01787 0.46956,-0.06514 0.69716,-0.14183c0.2276,-0.07669 0.43485,-0.1731 0.62173,-0.28925c0.25697,-0.1597 0.49121,-0.36466 0.70273,-0.61485c0.21152,-0.2502 0.37474,-0.52166 0.48967,-0.81437c0.11493,-0.29272 0.16914,-0.59628 0.16265,-0.91068c-0.0065,-0.3144 -0.10169,-0.61956 -0.2856,-0.91546c-0.14519,-0.23361 -0.31384,-0.40945 -0.50597,-0.52752c-0.19212,-0.11808 -0.40061,-0.20169 -0.62547,-0.25085c-0.22486,-0.04916 -0.45708,-0.06675 -0.69667,-0.05278c-0.23959,0.01397 -0.47945,0.03621 -0.71957,0.0667c-0.17109,0.01998 -0.3405,0.047 -0.50823,0.08108c-0.16773,0.03408 -0.33714,0.0611 -0.50823,0.08108c-0.34808,0.06521 -0.68664,0.111 -1.01567,0.13738c-0.32903,0.02638 -0.64096,0.01515 -0.93579,-0.0337c-0.29483,-0.04885 -0.57008,-0.15304 -0.82575,-0.31258c-0.25568,-0.15954 -0.48272,-0.39894 -0.68114,-0.7182c-0.20326,-0.32705 -0.33018,-0.67456 -0.38076,-1.04252c-0.05058,-0.36797 -0.03145,-0.72798 0.05739,-1.08005c0.08884,-0.35206 0.24444,-0.68355 0.4668,-0.99446c0.22236,-0.31091 0.50096,-0.57042 0.8358,-0.77852c0.39713,-0.24682 0.82655,-0.38956 1.28827,-0.42824c0.46172,-0.03868 0.90228,0.02754 1.32168,0.19867l-0.35548,0.4962c-0.31944,-0.11451 -0.64905,-0.14984 -0.98881,-0.10599c-0.33977,0.04385 -0.6576,0.15772 -0.9535,0.34162c-0.26475,0.16454 -0.48369,0.36808 -0.6568,0.6106c-0.17311,0.24252 -0.29404,0.50388 -0.36277,0.78408c-0.06873,0.2802 -0.08549,0.56588 -0.05027,0.85703c0.03522,0.29115 0.13269,0.56521 0.29239,0.82218c0.14035,0.22582 0.30658,0.39777 0.49871,0.51584c0.19212,0.11808 0.39941,0.19975 0.62184,0.24501c0.22244,0.04527 0.45466,0.06286 0.69667,0.05278c0.24201,-0.01008 0.48066,-0.03426 0.71594,-0.07254c0.16625,-0.02776 0.33324,-0.05868 0.50097,-0.09276c0.16773,-0.03408 0.33714,-0.0611 0.50823,-0.08108c0.34808,-0.06521 0.68664,-0.111 1.01567,-0.13738c0.32903,-0.02638 0.64217,-0.0132 0.93942,0.03954c0.29725,0.05274 0.57492,0.16083 0.83301,0.32426c0.2581,0.16343 0.48877,0.40867 0.69203,0.73572z" data-paper-data="{&quot;glyphName&quot;:&quot;S&quot;,&quot;glyphIndex&quot;:4,&quot;firstGlyphOfWord&quot;:true,&quot;word&quot;:2}"></path><path d="M238.72964,142.70542l-0.5017,0.22561l-3.56465,-7.92685l-1.35064,7.25715l-6.31281,-3.81095l3.56465,7.92685l-0.5017,0.22561l-4.33737,-9.64516c0.03552,0.03429 0.1653,0.12169 0.38933,0.26221c0.22403,0.14052 0.5071,0.31731 0.84921,0.53039c0.34211,0.21308 0.72831,0.45156 1.15861,0.71545c0.4303,0.26389 0.86572,0.52799 1.30626,0.7923c1.03698,0.62941 2.19998,1.33785 3.489,2.12534l1.5252,-8.21023z" data-paper-data="{&quot;glyphName&quot;:&quot;M&quot;,&quot;glyphIndex&quot;:5,&quot;word&quot;:2}"></path><path d="M251.78305,138.59379l-0.62106,0.17906l-1.58204,-1.9627l-5.36493,1.54674l-0.30758,2.50748l-0.62106,0.17906l1.35957,-11.26944zM249.24459,136.39159l-4.21385,-5.28298l-0.75465,6.71543z" data-paper-data="{&quot;glyphName&quot;:&quot;A&quot;,&quot;glyphIndex&quot;:6,&quot;word&quot;:2}"></path><path d="M262.73829,136.60528l-0.66579,0.10398l-3.14137,-4.33929l-2.51371,0.39259l0.73637,4.7149l-0.5435,0.08488l-1.59157,-10.1907l3.05721,-0.47747c0.38951,-0.06083 0.76543,-0.04531 1.12776,0.04657c0.36233,0.09188 0.68976,0.24257 0.9823,0.45206c0.29254,0.20949 0.53936,0.46788 0.74046,0.77517c0.2011,0.30729 0.33136,0.65116 0.39078,1.03161c0.09196,0.5888 -0.01636,1.15783 -0.32494,1.70711c-0.30859,0.54928 -0.79465,0.98709 -1.4582,1.31342zM260.73295,129.29084c-0.04669,-0.29893 -0.14942,-0.57054 -0.30821,-0.81484c-0.15879,-0.2443 -0.35565,-0.45018 -0.59059,-0.61763c-0.23494,-0.16745 -0.49486,-0.28693 -0.77977,-0.35842c-0.28491,-0.0715 -0.58135,-0.08319 -0.88934,-0.03509l-2.51371,0.39259l0.67695,4.33445l2.51371,-0.39259c0.30799,-0.0481 0.58675,-0.14963 0.83629,-0.3046c0.24954,-0.15496 0.46101,-0.34574 0.6344,-0.57233c0.1734,-0.22659 0.29846,-0.48042 0.37519,-0.76151c0.07673,-0.28109 0.09175,-0.57109 0.04507,-0.87002z" data-paper-data="{&quot;glyphName&quot;:&quot;R&quot;,&quot;glyphIndex&quot;:7,&quot;word&quot;:2}"></path><path d="M272.67249,126.13886l-2.91178,0.14716l0.49147,9.72423l-0.53566,0.02707l-0.49147,-9.72423l-2.91178,0.14716l-0.02916,-0.57686l6.35921,-0.3214z" data-paper-data="{&quot;glyphName&quot;:&quot;T&quot;,&quot;glyphIndex&quot;:8,&quot;word&quot;:2}"></path><path d="M278.07912,134.50671l-1.16937,2.9717l-0.38496,-0.00892l0.67442,-2.98318z" data-paper-data="{&quot;glyphName&quot;:&quot;,&quot;,&quot;glyphIndex&quot;:9,&quot;lastGlyphOfWord&quot;:true,&quot;word&quot;:2}"></path><path d="M298.15489,135.85568c-0.07968,0.39545 -0.24335,0.74359 -0.49101,1.04441c-0.24766,0.30082 -0.54198,0.54313 -0.88298,0.72694c-0.34099,0.18381 -0.71605,0.30464 -1.12519,0.3625c-0.40914,0.05785 -0.81592,0.04603 -1.22037,-0.03546c-0.2876,-0.05795 -0.56526,-0.15364 -0.83298,-0.28708c-0.26772,-0.13344 -0.51561,-0.29561 -0.74369,-0.48653c-0.22808,-0.19092 -0.42555,-0.40607 -0.59243,-0.64544c-0.16688,-0.23938 -0.29237,-0.49847 -0.37648,-0.77729l0.59891,-0.11781c0.0662,0.22845 0.17109,0.43897 0.31465,0.63156c0.14357,0.19259 0.30784,0.36364 0.49283,0.51314c0.18498,0.1495 0.38664,0.2743 0.60495,0.37441c0.21832,0.1001 0.43533,0.17188 0.65103,0.21535c0.29659,0.05976 0.60763,0.07099 0.93313,0.0337c0.3255,-0.03729 0.63039,-0.12316 0.91467,-0.25761c0.28428,-0.13445 0.53177,-0.31839 0.74248,-0.55184c0.2107,-0.23344 0.35046,-0.52093 0.41928,-0.86246c0.05433,-0.26963 0.05198,-0.51327 -0.00705,-0.73091c-0.05902,-0.21765 -0.15358,-0.42141 -0.28367,-0.61129c-0.13009,-0.18988 -0.28717,-0.36182 -0.47125,-0.51581c-0.18408,-0.154 -0.37401,-0.30215 -0.56979,-0.44448c-0.1383,-0.10269 -0.28021,-0.19908 -0.42572,-0.28919c-0.14551,-0.09011 -0.28742,-0.18651 -0.42572,-0.28919c-0.2982,-0.19102 -0.57616,-0.38965 -0.83389,-0.59589c-0.25772,-0.20624 -0.47722,-0.42816 -0.65848,-0.66576c-0.18126,-0.2376 -0.31034,-0.5021 -0.38724,-0.79349c-0.0769,-0.29139 -0.07823,-0.62133 -0.00398,-0.98982c0.07606,-0.37748 0.22173,-0.71755 0.43703,-1.02021c0.2153,-0.30266 0.47592,-0.55177 0.78186,-0.74732c0.30595,-0.19555 0.64642,-0.33036 1.02141,-0.40445c0.375,-0.07408 0.75573,-0.07219 1.14219,0.00568c0.45837,0.09235 0.86895,0.28263 1.23174,0.57084c0.36279,0.2882 0.63829,0.63832 0.8265,1.05033l-0.59891,0.11781c-0.1542,-0.30229 -0.37005,-0.55387 -0.64756,-0.75475c-0.27751,-0.20088 -0.58703,-0.33572 -0.92856,-0.40454c-0.30558,-0.06157 -0.6045,-0.06335 -0.89676,-0.00533c-0.29226,0.05802 -0.55943,0.16552 -0.80149,0.3225c-0.24206,0.15698 -0.45001,0.35357 -0.62386,0.58976c-0.17385,0.23619 -0.29065,0.50259 -0.35041,0.79918c-0.05252,0.26064 -0.04926,0.49978 0.00976,0.71743c0.05902,0.21765 0.15403,0.41916 0.28502,0.60455c0.13099,0.18538 0.28807,0.35732 0.47125,0.51581c0.18317,0.15849 0.37356,0.3044 0.57115,0.43774c0.14011,0.0937 0.28293,0.1856 0.42844,0.27571c0.14551,0.09011 0.28742,0.18651 0.42572,0.28919c0.2982,0.19102 0.57616,0.38965 0.83389,0.59589c0.25772,0.20624 0.47676,0.43041 0.65712,0.67251c0.18036,0.24209 0.30853,0.51108 0.38453,0.80697c0.07599,0.29589 0.07596,0.63257 -0.00009,1.01005z" data-paper-data="{&quot;glyphName&quot;:&quot;S&quot;,&quot;glyphIndex&quot;:10,&quot;firstGlyphOfWord&quot;:true,&quot;word&quot;:3}"></path><path d="M309.96115,142.20418l-0.52161,-0.17471l1.54615,-4.61627l-5.90727,-1.97854l-1.54615,4.61627l-0.52161,-0.17471l3.27573,-9.78024l0.52161,0.17471l-1.54615,4.61627l5.90727,1.97854l1.54615,-4.61627l0.52161,0.17471z" data-paper-data="{&quot;glyphName&quot;:&quot;H&quot;,&quot;glyphIndex&quot;:11,&quot;word&quot;:3}"></path><path d="M327.07063,144.61246c-0.33342,0.65329 -0.77054,1.20219 -1.31135,1.64671c-0.54081,0.44451 -1.13702,0.77068 -1.78864,0.97851c-0.65161,0.20783 -1.32779,0.28732 -2.02854,0.23848c-0.70075,-0.04884 -1.37368,-0.23789 -2.01881,-0.56715c-0.65329,-0.33342 -1.20323,-0.7685 -1.64983,-1.30523c-0.4466,-0.53673 -0.77689,-1.1299 -0.99089,-1.77951c-0.214,-0.64961 -0.29966,-1.32379 -0.25698,-2.02254c0.04268,-0.69875 0.23073,-1.37477 0.56415,-2.02806c0.32925,-0.64512 0.76533,-1.19199 1.30822,-1.64058c0.5429,-0.4486 1.13911,-0.77477 1.78864,-0.97851c0.64953,-0.20375 1.32367,-0.28428 2.02241,-0.24161c0.69875,0.04268 1.37477,0.23073 2.02806,0.56415c0.64512,0.32925 1.19199,0.76533 1.64058,1.30822c0.4486,0.5429 0.78093,1.13711 0.99702,1.78264c0.21608,0.64553 0.30174,1.31971 0.25698,2.02254c-0.04476,0.70283 -0.23177,1.37681 -0.56102,2.02193zM326.55616,144.34989c0.29591,-0.5798 0.46183,-1.18219 0.49774,-1.80719c0.03592,-0.625 -0.04113,-1.2253 -0.23114,-1.80091c-0.19001,-0.57561 -0.48598,-1.10494 -0.88792,-1.588c-0.40194,-0.48306 -0.88872,-0.87046 -1.46035,-1.1622c-0.5798,-0.29591 -1.18319,-0.46491 -1.81019,-0.50699c-0.627,-0.04208 -1.2293,0.02879 -1.80691,0.21263c-0.57761,0.18384 -1.1069,0.47469 -1.58787,0.87254c-0.48097,0.39785 -0.86941,0.88668 -1.16533,1.46647c-0.29591,0.5798 -0.46183,1.18219 -0.49774,1.80719c-0.03592,0.625 0.04113,1.2253 0.23114,1.80091c0.19001,0.57561 0.48394,1.1039 0.88179,1.58487c0.39785,0.48097 0.88668,0.86941 1.46647,1.16533c0.57163,0.29174 1.17094,0.45866 1.79794,0.50074c0.627,0.04208 1.2293,-0.02879 1.80691,-0.21263c0.57761,-0.18384 1.10894,-0.47365 1.594,-0.86942c0.48505,-0.39577 0.87554,-0.88355 1.17145,-1.46335z" data-paper-data="{&quot;glyphName&quot;:&quot;O&quot;,&quot;glyphIndex&quot;:12,&quot;word&quot;:3}"></path><path d="M338.82521,149.51066c-0.2217,0.31484 -0.49073,0.56551 -0.80709,0.75203c-0.31636,0.18651 -0.65262,0.30575 -1.00878,0.3577c-0.35616,0.05196 -0.71703,0.03893 -1.08259,-0.03908c-0.36556,-0.07801 -0.70951,-0.23051 -1.03185,-0.45749l-2.09143,-1.47274l-2.74753,3.90175l-0.44977,-0.31672l5.93846,-8.43317l2.54119,1.78945c0.32233,0.22698 0.58183,0.49941 0.77847,0.8173c0.19665,0.31789 0.32921,0.65512 0.39769,1.01171c0.06848,0.35658 0.06823,0.71523 -0.00076,1.07594c-0.06898,0.36071 -0.21433,0.69848 -0.43603,1.01332zM338.3417,149.17019c0.17419,-0.24737 0.29043,-0.51594 0.3487,-0.8057c0.05827,-0.28976 0.05982,-0.57461 0.00465,-0.85454c-0.05517,-0.27994 -0.16221,-0.54593 -0.32111,-0.798c-0.1589,-0.25206 -0.36579,-0.46783 -0.62066,-0.6473l-2.09143,-1.47274l-2.52582,3.58691l2.09143,1.47274c0.25487,0.17947 0.52774,0.30154 0.8186,0.3662c0.29087,0.06466 0.57738,0.07579 0.85953,0.03339c0.28215,-0.0424 0.5485,-0.13798 0.79903,-0.28675c0.25053,-0.14877 0.46289,-0.34684 0.63709,-0.59421z" data-paper-data="{&quot;glyphName&quot;:&quot;P&quot;,&quot;glyphIndex&quot;:13,&quot;lastGlyphOfWord&quot;:true,&quot;word&quot;:3}"></path><path d="M348.25156,168.16485l-3.64393,-3.78416l7.42963,-7.15432l3.64393,3.78416l-0.41606,0.40064l-3.26237,-3.38791l-3.09072,2.9762l2.86173,2.97185l-0.41606,0.40064l-2.86173,-2.97185l-3.09072,2.9762l3.26237,3.38791z" data-paper-data="{&quot;glyphName&quot;:&quot;E&quot;,&quot;glyphIndex&quot;:14,&quot;firstGlyphOfWord&quot;:true,&quot;word&quot;:4}"></path><path d="M356.67419,178.75995l-0.38995,-0.51548l1.26446,-2.18086l-3.3685,-4.45287l-2.4509,0.61249l-0.38995,-0.51548l11.00699,-2.77398zM357.81908,175.6004l3.41952,-5.82866l-6.53911,1.70482z" data-paper-data="{&quot;glyphName&quot;:&quot;A&quot;,&quot;glyphIndex&quot;:15,&quot;word&quot;:4}"></path><path d="M364.32583,186.14748c-0.34797,0.20408 -0.71662,0.314 -1.10595,0.32976c-0.38933,0.01576 -0.76613,-0.04226 -1.1304,-0.17405c-0.36427,-0.1318 -0.70428,-0.33096 -1.02002,-0.5975c-0.31575,-0.26654 -0.57798,-0.57775 -0.7867,-0.93363c-0.14842,-0.25307 -0.26207,-0.52388 -0.34095,-0.81242c-0.07888,-0.28854 -0.12312,-0.58145 -0.13273,-0.87873c-0.00961,-0.29728 0.01925,-0.58789 0.08655,-0.87182c0.06731,-0.28393 0.1769,-0.55015 0.32876,-0.79864l0.48691,0.3681c-0.12624,0.20158 -0.21333,0.42006 -0.26129,0.65544c-0.04795,0.23538 -0.06604,0.47185 -0.05427,0.7094c0.01178,0.23755 0.05307,0.47108 0.1239,0.70057c0.07082,0.22949 0.16189,0.43914 0.27321,0.62895c0.15306,0.26098 0.35193,0.5004 0.59662,0.71827c0.24469,0.21787 0.51187,0.388 0.80154,0.5104c0.28967,0.1224 0.59174,0.18439 0.90621,0.18596c0.31447,0.00157 0.62196,-0.08577 0.92248,-0.26201c0.23725,-0.13914 0.41736,-0.30323 0.54033,-0.49226c0.12297,-0.18903 0.21191,-0.39531 0.26682,-0.61883c0.05491,-0.22352 0.07846,-0.45522 0.07064,-0.69509c-0.00782,-0.23987 -0.02389,-0.48022 -0.04822,-0.72104c-0.01558,-0.17155 -0.03825,-0.3416 -0.06801,-0.51014c-0.02976,-0.16855 -0.05243,-0.33859 -0.06801,-0.51014c-0.05625,-0.34964 -0.09335,-0.68926 -0.11128,-1.01886c-0.01793,-0.3296 0.0013,-0.64114 0.0577,-0.93462c0.0564,-0.29348 0.16762,-0.56597 0.33367,-0.81746c0.16605,-0.2515 0.41119,-0.47233 0.73544,-0.66249c0.33216,-0.1948 0.6828,-0.31276 1.05195,-0.35388c0.36914,-0.04112 0.72855,-0.01276 1.07822,0.08508c0.34967,0.09784 0.67706,0.2619 0.98216,0.49216c0.3051,0.23027 0.55738,0.51543 0.75682,0.85549c0.23655,0.40333 0.36823,0.83628 0.39505,1.29883c0.02682,0.46256 -0.05068,0.90127 -0.23252,1.31614l-0.48691,-0.3681c0.12267,-0.3164 0.16644,-0.64499 0.13133,-0.98577c-0.03512,-0.34078 -0.1408,-0.66143 -0.31705,-0.96195c-0.1577,-0.26889 -0.35555,-0.49297 -0.59355,-0.67225c-0.238,-0.17928 -0.49617,-0.30687 -0.77452,-0.38277c-0.27834,-0.0759 -0.5635,-0.09998 -0.85546,-0.07224c-0.29196,0.02774 -0.56843,0.11814 -0.82941,0.2712c-0.22935,0.13451 -0.4055,0.29628 -0.52847,0.48531c-0.12297,0.18903 -0.20993,0.39415 -0.26089,0.61535c-0.05096,0.2212 -0.0745,0.4529 -0.07064,0.69509c0.00387,0.24219 0.02192,0.48138 0.05415,0.71756c0.02349,0.16691 0.05011,0.33464 0.07988,0.50319c0.02976,0.16855 0.05243,0.33859 0.06801,0.51014c0.05625,0.34964 0.09335,0.68926 0.11128,1.01886c0.01793,0.3296 -0.00328,0.6423 -0.06363,0.93809c-0.06035,0.2958 -0.17553,0.5706 -0.34553,0.82442c-0.17,0.25382 -0.42108,0.47813 -0.75323,0.67293z" data-paper-data="{&quot;glyphName&quot;:&quot;S&quot;,&quot;glyphIndex&quot;:16,&quot;word&quot;:4}"></path><path d="M376.51798,194.05571l-6.19354,-1.07313l-4.65098,2.06392l-0.23986,-0.54052l4.65098,-2.06392l3.36541,-5.29997l0.28449,0.64108l-2.97966,4.67742l5.47868,0.95404z" data-paper-data="{&quot;glyphName&quot;:&quot;Y&quot;,&quot;glyphIndex&quot;:17,&quot;lastGlyphOfWord&quot;:true,&quot;word&quot;:4}"></path></g><g data-paper-data="{&quot;isContainerElementsWrapper&quot;:true}" fill-rule="evenodd"><path d="M224.7852,116.14041c15.98316,-6.76027 32.72143,-10.14041 50.2148,-10.14041c17.49442,0 34.23293,3.38014 50.21553,10.14041c15.43281,6.52785 29.09968,15.7421 41.00061,27.64274c11.90093,11.90065 21.1154,25.56798 27.6434,41.002c6.76041,15.9833 10.14062,32.7216 10.14062,50.2149c0,17.49214 -3.37985,34.23027 -10.14062,50.21532c-0.08321,0.1959 -0.16641,0.39181 -0.24962,0.58666h-1.33551c0.15307,-0.35389 0.30509,-0.70883 0.45605,-1.06483c6.69581,-15.83163 10.04372,-32.41069 10.04372,-49.73715c0,-17.32857 -3.34791,-33.90769 -10.04372,-49.73736c-6.46585,-15.28802 -15.59325,-28.82561 -27.38008,-40.61277c-11.78929,-11.78827 -25.32696,-20.91515 -40.61302,-27.38065c-15.82883,-6.69567 -32.40795,-10.04351 -49.73736,-10.04351c-17.32805,0 -33.90713,3.34784 -49.73726,10.04351c-15.2876,6.46628 -28.8252,15.59317 -40.61279,27.3807c-11.78769,11.78773 -20.9146,25.3253 -27.38074,40.61272c-6.69567,15.83065 -10.04351,32.40977 -10.04351,49.73736c0,17.32787 3.34784,33.90692 10.04351,49.73715c0.15054,0.356 0.30253,0.71094 0.45595,1.06483h-1.33498c-0.0837,-0.1952 -0.16697,-0.39075 -0.24983,-0.58666c-6.76027,-15.9833 -10.14041,-32.72174 -10.14041,-50.21532c0,-17.49351 3.38014,-34.23181 10.14041,-50.2149c6.52814,-15.43413 15.74242,-29.10145 27.64285,-41.00195c11.90053,-11.90053 25.56786,-21.1148 41.002,-27.64279zM202.31418,341.61544c7.0207,4.79647 14.51104,8.87883 22.47113,12.24499c15.98323,6.75971 32.72146,10.13956 50.21469,10.13956c17.49513,0 34.23364,-3.37985 50.21553,-10.13956c7.9604,-3.36757 15.45071,-7.44923 22.47092,-12.24499h-2.19706c-6.51606,4.31478 -13.4334,8.02009 -20.75203,11.11592c-15.82953,6.69511 -32.40865,10.04266 -49.73736,10.04266c-17.32647,0 -33.90552,-3.34755 -49.73715,-10.04266c-7.31807,-3.09513 -14.23541,-6.80043 -20.75203,-11.11592z" data-paper-data="{&quot;isAdditionalOutlinePath&quot;:true}"></path><path d="M161.25679,186.94925c6.24678,-14.76884 15.06499,-27.84811 26.45462,-39.23781c11.38968,-11.38961 24.46898,-20.20781 39.23789,-26.45459c15.29132,-6.46768 31.30822,-9.70152 48.0507,-9.70152c16.74311,0 32.76015,3.23384 48.05112,9.70152c14.76786,6.24643 27.84702,15.06462 39.23749,26.45458c11.38976,11.38942 20.20786,24.4687 26.45428,39.23782c6.46796,15.29118 9.70141,31.30815 9.70141,48.05081c0,16.20508 -3.03018,31.73198 -9.09053,46.58058c-0.02212,-0.03054 -0.04529,-0.05898 -0.06951,-0.08847c-0.06741,-0.0811 -0.13797,-0.15904 -0.21275,-0.23382c-0.07478,-0.07478 -0.15272,-0.14535 -0.23382,-0.21275c-0.0811,-0.06635 -0.16641,-0.12955 -0.25383,-0.18748c-0.08742,-0.05898 -0.17694,-0.1127 -0.27068,-0.1622c-0.09269,-0.0495 -0.18748,-0.09479 -0.28543,-0.13482c-0.09795,-0.04108 -0.19696,-0.07583 -0.29701,-0.10638c-0.07057,-0.02106 -0.14113,-0.04002 -0.2117,-0.05688c5.85392,-14.47604 8.78088,-29.60864 8.78088,-45.39779c0,-16.45263 -3.17763,-32.19101 -9.5329,-47.21516c-6.1383,-14.51262 -14.80332,-27.36482 -25.99507,-38.55661c-11.19245,-11.1925 -24.04482,-19.85775 -38.55709,-25.99577c-15.02415,-6.35477 -30.76243,-9.53216 -47.21485,-9.53216c-16.45249,0 -32.19087,3.17742 -47.21506,9.53216c-14.51206,6.13808 -27.3643,14.80334 -38.5567,25.99576c-11.19243,11.19242 -19.85769,24.04462 -25.99578,38.55662c-6.35477,15.02429 -9.53216,30.76268 -9.53216,47.21516c0,15.79116 2.92685,30.92414 8.78067,45.39779c-0.07099,0.01685 -0.14135,0.03581 -0.21118,0.05688c-0.1009,0.03054 -0.20001,0.0653 -0.29733,0.10638c-0.09742,0.04002 -0.19253,0.08531 -0.28543,0.13482c-0.093,0.0495 -0.18326,0.10322 -0.27089,0.1622c-0.08763,0.05828 -0.17217,0.12077 -0.25362,0.18748c-0.08142,0.06741 -0.15946,0.13797 -0.23393,0.21275c-0.07457,0.07478 -0.14524,0.15272 -0.21212,0.23382c-0.02401,0.02949 -0.0475,0.05898 -0.07046,0.08953c-6.0605,-14.84791 -9.09074,-30.37512 -9.09074,-46.58164c0,-16.74241 3.23384,-32.75934 9.70152,-48.05081zM212.70157,341.61544c4.56047,2.664 9.30971,5.04012 14.24773,7.12834c15.29234,6.46691 31.30931,9.70036 48.0507,9.70036c16.74311,0 32.76015,-3.23345 48.05112,-9.70036c4.9383,-2.08893 9.68737,-4.46504 14.24721,-7.12834h-4.37201c-3.46376,1.87969 -7.03425,3.59717 -10.71147,5.15246c-15.02345,6.35421 -30.76173,9.53184 -47.21485,9.53184c-16.45154,0 -32.18982,-3.17763 -47.21506,-9.53184c-3.67708,-1.55564 -7.24768,-3.27242 -10.71179,-5.15246z" data-paper-data="{&quot;isBaseLogoContainer&quot;:true}"></path></g></g></g><g class="watermark-group" style="opacity:0; stroke: white; stroke-width: 2; stroke-opacity: 0.7;"><path class="watermark-path" d="M129.52,370.3a11.88,11.88,0,0,1,2.58,5.58,12,12,0,0,1,.11,3,11.81,11.81,0,0,1-.64,2.93,12.34,12.34,0,0,1-1.41,2.72,11.65,11.65,0,0,1-2.13,2.32,12,12,0,0,1-2.64,1.69,13,13,0,0,1-2.91.9,12.47,12.47,0,0,1-3,.12,12.17,12.17,0,0,1-2.93-.64,11.8,11.8,0,0,1-2.72-1.38,12.19,12.19,0,0,1-4-4.79,11.85,11.85,0,0,1-.89-2.92,12.14,12.14,0,0,1-.13-3,11.54,11.54,0,0,1,.64-2.92,11.67,11.67,0,0,1,3.5-5,11.44,11.44,0,0,1,2.67-1.69,11.64,11.64,0,0,1,2.92-.91,10.71,10.71,0,0,1,3-.12,11.68,11.68,0,0,1,5.66,2,11.7,11.7,0,0,1,2.34,2.12m-1.4,8.76a13,13,0,0,1-1.22,2.32,9.68,9.68,0,0,1-1.81,2,7.44,7.44,0,0,1-2.38,1.37,6.17,6.17,0,0,1-5.11-.46,8.73,8.73,0,0,1-3.85-4.58,6.69,6.69,0,0,1-.34-2.66,6.09,6.09,0,0,1,.77-2.47,7.15,7.15,0,0,1,1.75-2.11,9.58,9.58,0,0,1,1.09-.81,8.23,8.23,0,0,1,1.12-.63,8.14,8.14,0,0,1,1.19-.46,12.71,12.71,0,0,1,1.32-.37l2,2.38a12.83,12.83,0,0,0-1.56.17,7.86,7.86,0,0,0-1.23.32,4.5,4.5,0,0,0-1,.49,6.41,6.41,0,0,0-.93.67,4.49,4.49,0,0,0-1.15,1.39,3.87,3.87,0,0,0-.45,1.58,4.12,4.12,0,0,0,.26,1.63,6.11,6.11,0,0,0,2.36,2.82,4.43,4.43,0,0,0,1.57.53,3.91,3.91,0,0,0,1.62-.17,4.71,4.71,0,0,0,1.57-.89,10.5,10.5,0,0,0,.83-.79,5.71,5.71,0,0,0,.65-.93,10.13,10.13,0,0,0,.54-1.14,12.24,12.24,0,0,0,.44-1.49l2,2.33m-14.46,4.55a8.86,8.86,0,0,0,2.78,2.22,9,9,0,0,0,3.29.94,9.15,9.15,0,0,0,3.39-.37,8.68,8.68,0,0,0,3.11-1.69,8.8,8.8,0,0,0,2.22-2.78,9.15,9.15,0,0,0,1-3.29,8.95,8.95,0,0,0-4.83-8.76,9,9,0,0,0-6.73-.57,9,9,0,0,0-5.33,4.47,8.94,8.94,0,0,0-.57,6.71,8.76,8.76,0,0,0,1.7,3.12"></path><path class="watermark-path" d="M147,349c-.48.12-1.09.31-1.82.57a24.37,24.37,0,0,0-2.4,1A28.35,28.35,0,0,0,140,352a20.72,20.72,0,0,0-2.71,1.94c-.7.59-1.28,1.11-1.74,1.57a15.07,15.07,0,0,0-1.1,1.22,4.09,4.09,0,0,0-.59.92,2.32,2.32,0,0,0-.22.64,1.16,1.16,0,0,0,0,.47,1.83,1.83,0,0,0,.18.29,1.15,1.15,0,0,0,1,.37,5.54,5.54,0,0,0,1.51-.38q.87-.35,1.95-.9l2.26-1.18q1.2-.65,2.49-1.29c.87-.44,1.73-.83,2.59-1.17a18.94,18.94,0,0,1,2.6-.81,9.27,9.27,0,0,1,2.46-.29,6.25,6.25,0,0,1,2.24.49,5.12,5.12,0,0,1,1.89,1.47,6.35,6.35,0,0,1,1.41,2.61,6,6,0,0,1,.09,2.6,8.3,8.3,0,0,1-.9,2.52,17.79,17.79,0,0,1-1.62,2.37,23.92,23.92,0,0,1-2,2.15c-.72.67-1.41,1.29-2.09,1.87a33.79,33.79,0,0,1-5.33,3.7,32.29,32.29,0,0,1-4.91,2.28l-3.61-4.3a21.38,21.38,0,0,0,5.39-1.87,27.2,27.2,0,0,0,5.4-3.56,21.59,21.59,0,0,0,2.38-2.27,8.67,8.67,0,0,0,1.18-1.7,2.32,2.32,0,0,0,.27-1.19,1.34,1.34,0,0,0-.28-.74,1.21,1.21,0,0,0-1-.42,4.32,4.32,0,0,0-1.55.34,15.77,15.77,0,0,0-2,.88c-.72.37-1.48.77-2.27,1.21l-2.45,1.3c-.85.45-1.7.85-2.56,1.21a22.37,22.37,0,0,1-2.54.86,10,10,0,0,1-2.43.32,5.76,5.76,0,0,1-2.2-.45,5,5,0,0,1-1.89-1.45,6.12,6.12,0,0,1-1.31-2.41,6,6,0,0,1-.1-2.41,8.28,8.28,0,0,1,.81-2.38,14.06,14.06,0,0,1,1.49-2.24,22.37,22.37,0,0,1,1.85-2.05q1-1,2-1.77c.7-.59,1.44-1.15,2.23-1.7s1.62-1.06,2.44-1.53,1.63-.91,2.43-1.3,1.58-.75,2.3-1L147,349"></path><path class="watermark-path" d="M186.76,337.57l-10.6-12.63,3.92,18.24-4.66,3.91-17.27-7,10.6,12.63-4.86,4.07-15.09-18,6.59-5.54,18.69,7.52-4.15-19.71,6.57-5.52,15.09,18-4.83,4.05"></path><path class="watermark-path" d="M208.84,313.24l-10,8.42,1.16,4.82L194.56,331l-5.68-25.89,5.42-4.55,24.51,10.09-5.42,4.55-4.55-2m-11.23,3.45,6.57-5.52-8.83-3.87,2.26,9.39"></path><path class="watermark-path" d="M227.49,281.38c-.48.12-1.09.31-1.82.57a24.37,24.37,0,0,0-2.4,1,26.11,26.11,0,0,0-2.7,1.47,20.72,20.72,0,0,0-2.71,1.94c-.7.59-1.28,1.11-1.74,1.57a13.39,13.39,0,0,0-1.1,1.22,4.29,4.29,0,0,0-.59.91,2.48,2.48,0,0,0-.22.65,1.16,1.16,0,0,0,0,.47,1.83,1.83,0,0,0,.18.29,1.15,1.15,0,0,0,1,.37,5.54,5.54,0,0,0,1.51-.38q.87-.34,2-.9l2.26-1.18q1.2-.64,2.49-1.29c.87-.44,1.73-.83,2.59-1.17a18.94,18.94,0,0,1,2.6-.81,9.27,9.27,0,0,1,2.46-.29,6.08,6.08,0,0,1,2.24.49,5.09,5.09,0,0,1,1.89,1.46,6.47,6.47,0,0,1,1.41,2.61,6.07,6.07,0,0,1,.09,2.61,8.3,8.3,0,0,1-.9,2.52,16.32,16.32,0,0,1-1.63,2.36,21.41,21.41,0,0,1-2,2.16c-.72.67-1.41,1.29-2.1,1.86a33.36,33.36,0,0,1-5.32,3.71,31.92,31.92,0,0,1-4.92,2.28l-3.6-4.3a21.38,21.38,0,0,0,5.39-1.87,27.2,27.2,0,0,0,5.4-3.56,21.59,21.59,0,0,0,2.38-2.27,8.67,8.67,0,0,0,1.18-1.7A2.32,2.32,0,0,0,231,293a1.34,1.34,0,0,0-.28-.74,1.21,1.21,0,0,0-1-.42,4.32,4.32,0,0,0-1.55.34,16.54,16.54,0,0,0-2,.88c-.71.37-1.47.77-2.26,1.21l-2.46,1.3c-.84.44-1.7.85-2.55,1.21a24.53,24.53,0,0,1-2.54.86A10,10,0,0,1,214,298a5.76,5.76,0,0,1-2.2-.45,5,5,0,0,1-1.89-1.45,6.12,6.12,0,0,1-1.31-2.41,5.78,5.78,0,0,1-.1-2.41,8,8,0,0,1,.81-2.38,14.61,14.61,0,0,1,1.49-2.25,22.26,22.26,0,0,1,1.85-2q1-1,2-1.77c.7-.59,1.44-1.15,2.23-1.7s1.62-1.06,2.44-1.53,1.63-.91,2.43-1.31,1.58-.74,2.3-1l3.5,4.16"></path><path class="watermark-path" d="M261.64,274.74l-6.29-7.5L243,277.61l6.3,7.5-4.86,4.07-15.09-18,4.85-4.08,5.49,6.55L252,263.3l-5.49-6.55,4.86-4.07,15.09,18-4.86,4.08"></path><path class="watermark-path" d="M272.18,265.9l-15.09-18,4.86-4.08,15.09,18-4.86,4.08"></path><path class="watermark-path" d="M299.65,242.85l-22.51-2.18L287.51,253l-4.85,4.08-15.1-18,5.28-4.43,22.56,2.22L285,224.5l4.83-4.06,15.09,18-5.26,4.42"></path><path class="watermark-path" d="M306.68,205.52a31.88,31.88,0,0,1,5.29-3.66,34.48,34.48,0,0,1,5.14-2.35l3.69,4.39a20.77,20.77,0,0,0-2.37.61,20.47,20.47,0,0,0-2.61,1,25.12,25.12,0,0,0-2.76,1.49,23.9,23.9,0,0,0-2.8,2,20.42,20.42,0,0,0-2.8,2.77,12.77,12.77,0,0,0-1.64,2.52,7,7,0,0,0-.68,2.24,6,6,0,0,0,.66,3.64,8.16,8.16,0,0,0,.94,1.38,9.12,9.12,0,0,0,1.08,1.07,6.39,6.39,0,0,0,1.47.91,6.73,6.73,0,0,0,1.88.48,6.54,6.54,0,0,0,2.28-.18,11.67,11.67,0,0,0,2.74-1.07,19.38,19.38,0,0,0,3.18-2.22c.57-.48,1.06-.92,1.46-1.31a14.57,14.57,0,0,0,1-1.13,11.46,11.46,0,0,0,.81-1.05l.74-1.09-1.82-2.17-5.45,4.57-3.31-3.94,10.31-8.65,7.71,9.19a29,29,0,0,1-1.67,2.43q-1,1.26-2.1,2.52c-.74.84-1.5,1.65-2.3,2.44s-1.58,1.5-2.33,2.14a31,31,0,0,1-3.59,2.61,22.55,22.55,0,0,1-3.64,1.83,15.64,15.64,0,0,1-3.63.89,10.72,10.72,0,0,1-3.49-.15,10.45,10.45,0,0,1-3.28-1.33,12.54,12.54,0,0,1-3-2.67,12,12,0,0,1-2.08-3.44,10.45,10.45,0,0,1-.71-3.5,11.14,11.14,0,0,1,.51-3.51,15.72,15.72,0,0,1,1.56-3.43,21.62,21.62,0,0,1,2.42-3.28,30.3,30.3,0,0,1,3.15-3"></path><path class="watermark-path" d="M336.91,211.59l-15.1-18,4.86-4.08,11.79,14,13.13-11,3.31,3.94-18,15.1"></path><path class="watermark-path" d="M374.54,164.71a12.28,12.28,0,0,1,2.59,4.81,10.44,10.44,0,0,1,0,5,14.62,14.62,0,0,1-2.33,5,25.55,25.55,0,0,1-4.56,4.85,26.07,26.07,0,0,1-5.6,3.67,14.79,14.79,0,0,1-5.38,1.43,10.43,10.43,0,0,1-4.94-.89,13.24,13.24,0,0,1-6.87-8.18,10.48,10.48,0,0,1,0-5,14.51,14.51,0,0,1,2.36-5,25.23,25.23,0,0,1,4.57-4.89,25,25,0,0,1,5.59-3.64,14.45,14.45,0,0,1,5.35-1.43,10.31,10.31,0,0,1,4.93.92,12.22,12.22,0,0,1,4.28,3.38m-4.91,4.11a8.36,8.36,0,0,0-2-1.72,5.5,5.5,0,0,0-2.65-.85,7.72,7.72,0,0,0-3.32.57,14.49,14.49,0,0,0-4,2.52,16.72,16.72,0,0,0-2.38,2.4,10.15,10.15,0,0,0-1.39,2.24,6.71,6.71,0,0,0-.56,2.1,5.69,5.69,0,0,0,.1,1.9,6.21,6.21,0,0,0,.61,1.69,9.85,9.85,0,0,0,1,1.44,10.48,10.48,0,0,0,1.26,1.23,6.67,6.67,0,0,0,1.57.92,6.1,6.1,0,0,0,1.85.41,6.8,6.8,0,0,0,2.15-.2,11.06,11.06,0,0,0,2.45-1,17.67,17.67,0,0,0,2.77-1.94,14.39,14.39,0,0,0,3.18-3.52,7.74,7.74,0,0,0,1.14-3.17,5.54,5.54,0,0,0-.37-2.74,8.52,8.52,0,0,0-1.36-2.3"></path><path class="watermark-path" d="M382.66,141.76A32.3,32.3,0,0,1,388,138.1a34.12,34.12,0,0,1,5.15-2.35l3.69,4.4a19.62,19.62,0,0,0-2.37.6,22.08,22.08,0,0,0-2.61,1,26,26,0,0,0-2.77,1.49,23.9,23.9,0,0,0-2.8,2,21,21,0,0,0-2.8,2.78,13.19,13.19,0,0,0-1.64,2.51,7.29,7.29,0,0,0-.68,2.24,6.36,6.36,0,0,0,.06,2,5.8,5.8,0,0,0,.61,1.68,8.12,8.12,0,0,0,.93,1.38,9.16,9.16,0,0,0,1.08,1.08,6.56,6.56,0,0,0,1.48.9,6,6,0,0,0,1.87.48,6.76,6.76,0,0,0,2.28-.17,12,12,0,0,0,2.74-1.08,18.57,18.57,0,0,0,3.18-2.22c.58-.48,1.06-.92,1.46-1.31s.75-.77,1.05-1.12.57-.72.81-1.06l.73-1.09-1.82-2.17-5.45,4.57-3.3-3.94,10.3-8.65,7.71,9.19a29,29,0,0,1-1.67,2.43q-1,1.26-2.1,2.52c-.73.84-1.5,1.66-2.3,2.44s-1.57,1.5-2.33,2.14a31,31,0,0,1-3.59,2.61,22.15,22.15,0,0,1-3.64,1.83,15.56,15.56,0,0,1-3.62.89,11,11,0,0,1-3.49-.14,10.84,10.84,0,0,1-3.28-1.33,12.82,12.82,0,0,1-3-2.68,12.12,12.12,0,0,1-2.08-3.43A10.71,10.71,0,0,1,375,155a11.18,11.18,0,0,1,.51-3.51,15.51,15.51,0,0,1,1.57-3.43,21.44,21.44,0,0,1,2.42-3.28,30.19,30.19,0,0,1,3.14-3"></path><path class="watermark-path" d="M428.63,119.31a12.26,12.26,0,0,1,2.59,4.82,10.44,10.44,0,0,1,0,5,14.53,14.53,0,0,1-2.34,5,25.29,25.29,0,0,1-4.56,4.86,26,26,0,0,1-5.59,3.67,14.84,14.84,0,0,1-5.38,1.43,10.61,10.61,0,0,1-4.95-.89,12.15,12.15,0,0,1-4.3-3.37,12,12,0,0,1-2.56-4.81,10.48,10.48,0,0,1,0-5,14.39,14.39,0,0,1,2.35-5,27.89,27.89,0,0,1,10.16-8.53,14.49,14.49,0,0,1,5.36-1.43,10.27,10.27,0,0,1,4.92.92,12.21,12.21,0,0,1,4.28,3.37m-4.91,4.12a8.17,8.17,0,0,0-2-1.72,5.58,5.58,0,0,0-2.65-.86,7.86,7.86,0,0,0-3.31.58,14.49,14.49,0,0,0-4,2.52,16.21,16.21,0,0,0-2.38,2.4,9.85,9.85,0,0,0-1.4,2.24,7,7,0,0,0-.56,2.1,6,6,0,0,0,.1,1.9,6.23,6.23,0,0,0,.62,1.69,8.49,8.49,0,0,0,1,1.44,9.18,9.18,0,0,0,1.26,1.23,6.67,6.67,0,0,0,1.57.92,6,6,0,0,0,1.84.41,6.86,6.86,0,0,0,2.16-.2,11.26,11.26,0,0,0,2.45-1,17.62,17.62,0,0,0,2.76-1.94,14.67,14.67,0,0,0,3.19-3.52,7.71,7.71,0,0,0,1.13-3.17,5.53,5.53,0,0,0-.36-2.74,8.55,8.55,0,0,0-1.37-2.3"></path></g></svg>