<svg xmlns:mydata="http://www.w3.org/2000/svg" mydata:contrastcolor="ffffff" mydata:template="SingleColorHex1" mydata:presentation="2.5" mydata:layouttype="undefined" mydata:specialfontid="undefined" mydata:id1="043" mydata:id2="008" mydata:companyname="fabrico" mydata:companytagline="" version="1.1" xmlns="http://www.w3.org/2000/svg" xmlns:xlink="http://www.w3.org/1999/xlink" width="420" height="52" viewBox="65 209 420 52"><g fill="#101820" fill-rule="nonzero" stroke="none" stroke-width="1" stroke-linecap="butt" stroke-linejoin="miter" stroke-miterlimit="10" stroke-dasharray="" stroke-dashoffset="0" font-family="none" font-weight="none" font-size="none" text-anchor="none" style="mix-blend-mode: normal"><g data-paper-data="{&quot;isGlobalGroup&quot;:true,&quot;bounds&quot;:{&quot;x&quot;:65,&quot;y&quot;:211.583898827884,&quot;width&quot;:420,&quot;height&quot;:46.83220234423197}}"><g data-paper-data="{&quot;isPrimaryText&quot;:true}" id="element-id-51370"><path d="M77.01573,222.20697v7.74059h28.92196v9.48951h-28.92196v17.78069h-12.01573v-44.50031h42.52468v9.48951z" data-paper-data="{&quot;glyphName&quot;:&quot;F&quot;,&quot;glyphIndex&quot;:0,&quot;firstGlyphOfWord&quot;:true,&quot;word&quot;:1}" id="element-id-42826"></path><path d="M158.83714,248.79704h-24.80876l-4.17798,8.42073h-13.40839l23.28655,-44.50031h13.40839l23.28655,44.50031h-13.40839zM138.3359,240.11721h16.25848l-8.09685,-16.38803z" data-paper-data="{&quot;glyphName&quot;:&quot;A&quot;,&quot;glyphIndex&quot;:1,&quot;word&quot;:1}" id="element-id-50037"></path><path d="M241.37107,244.94294c0,1.72733 -0.22671,3.22795 -0.68014,4.50185c-0.45342,1.2739 -1.08498,2.36968 -1.89466,3.28732c-0.80969,0.91764 -1.78131,1.66255 -2.91487,2.23473c-1.13356,0.57218 -2.38587,1.0256 -3.75694,1.36027c-1.37107,0.33467 -2.8339,0.56678 -4.38849,0.69633c-1.5546,0.12955 -3.16317,0.19432 -4.82572,0.19432h-32.29025v-44.50031h31.70728c1.2739,0 2.55321,0.05398 3.83791,0.16194c1.2847,0.10796 2.51002,0.30768 3.67597,0.59917c1.16595,0.29149 2.25093,0.69633 3.25494,1.21453c1.00401,0.5182 1.87847,1.19833 2.62338,2.04041c0.74491,0.84207 1.32788,1.85688 1.74892,3.04442c0.42104,1.18754 0.63155,2.59099 0.63155,4.21036c0,2.89328 -0.71252,5.18738 -2.13757,6.88233c-1.42505,1.69494 -3.67057,2.8231 -6.73658,3.38448c2.15916,0.15114 4.01064,0.48041 5.55444,0.98782c1.5438,0.5074 2.80151,1.19833 3.77313,2.07279c0.97162,0.87446 1.68415,1.94324 2.13757,3.20635c0.45342,1.26311 0.68014,2.73674 0.68014,4.42088zM226.37569,225.89914c0,-0.56138 -0.08637,-1.09577 -0.2591,-1.60318c-0.17273,-0.5074 -0.48581,-0.95543 -0.93924,-1.34408c-0.45342,-0.38865 -1.06878,-0.70173 -1.84608,-0.93924c-0.7773,-0.23751 -1.77051,-0.35626 -2.97964,-0.35626h-17.71592v8.35595h17.71592c1.20913,0 2.20234,-0.10796 2.97964,-0.32387c0.7773,-0.21592 1.39266,-0.5074 1.84608,-0.87446c0.45342,-0.36706 0.7665,-0.80429 0.93924,-1.31169c0.17273,-0.5074 0.2591,-1.0418 0.2591,-1.60318zM229.16101,243.55028c0,-1.01481 -0.17273,-1.82989 -0.5182,-2.44525c-0.34547,-0.61536 -0.88526,-1.09038 -1.61937,-1.42505c-0.73411,-0.33467 -1.68415,-0.55598 -2.85009,-0.66394c-1.16595,-0.10796 -2.55861,-0.16194 -4.17798,-0.16194h-17.35965v9.42474h17.35965c1.61937,0 3.01203,-0.05398 4.17798,-0.16194c1.16595,-0.10796 2.11598,-0.33467 2.85009,-0.68014c0.73411,-0.34547 1.2739,-0.82588 1.61937,-1.44124c0.34547,-0.61536 0.5182,-1.43044 0.5182,-2.44525z" data-paper-data="{&quot;glyphName&quot;:&quot;B&quot;,&quot;glyphIndex&quot;:2,&quot;word&quot;:1}" id="element-id-20626"></path><path d="M271.24306,257.21777h-12.01573v-44.50031h30.1203c3.23874,0 5.98627,0.33467 8.2426,1.00401c2.25632,0.66934 4.09161,1.61937 5.50586,2.85009c1.41425,1.23072 2.43985,2.71514 3.0768,4.45327c0.63695,1.73812 0.95543,3.67597 0.95543,5.81354c0,1.87847 -0.2645,3.51943 -0.79349,4.92289c-0.52899,1.40345 -1.24152,2.60719 -2.13757,3.6112c-0.89605,1.00401 -1.93785,1.85148 -3.12539,2.54241c-1.18754,0.69093 -2.43985,1.26311 -3.75694,1.71653l14.57434,17.58637h-14.05614l-13.47316,-16.38803h-13.1169zM294.98304,226.7736c0,-0.86366 -0.11336,-1.59778 -0.34007,-2.20234c-0.22671,-0.60457 -0.62076,-1.09577 -1.18214,-1.47363c-0.56138,-0.37785 -1.31169,-0.65315 -2.25093,-0.82588c-0.93924,-0.17273 -2.11058,-0.2591 -3.51403,-0.2591h-16.45281v9.5219h16.45281c1.40345,0 2.5748,-0.08637 3.51403,-0.2591c0.93924,-0.17273 1.68954,-0.44803 2.25093,-0.82588c0.56138,-0.37785 0.95543,-0.86906 1.18214,-1.47363c0.22671,-0.60457 0.34007,-1.33868 0.34007,-2.20234z" data-paper-data="{&quot;glyphName&quot;:&quot;R&quot;,&quot;glyphIndex&quot;:3,&quot;word&quot;:1}" id="element-id-41633"></path><path d="M327.41363,257.21777v-44.50031h12.01573v44.50031z" data-paper-data="{&quot;glyphName&quot;:&quot;I&quot;,&quot;glyphIndex&quot;:4,&quot;word&quot;:1}" id="element-id-36765"></path><path d="M409.29981,254.17335c-1.5546,0.64775 -3.11999,1.23072 -4.69618,1.74892c-1.57619,0.5182 -3.20635,0.96622 -4.8905,1.34408c-1.68415,0.37785 -3.46006,0.66394 -5.32773,0.85827c-1.86767,0.19432 -3.8703,0.29149 -6.00787,0.29149c-4.53424,0 -8.70682,-0.48581 -12.51774,-1.45743c-3.81092,-0.97162 -7.09284,-2.43445 -9.84577,-4.38849c-2.75293,-1.95404 -4.8959,-4.39389 -6.4289,-7.31956c-1.533,-2.92566 -2.29951,-6.34254 -2.29951,-10.25062c0,-3.90808 0.7665,-7.32495 2.29951,-10.25062c1.533,-2.92566 3.67597,-5.36552 6.4289,-7.31956c2.75293,-1.95404 6.03486,-3.41687 9.84577,-4.38849c3.81092,-0.97162 7.9835,-1.45743 12.51774,-1.45743c2.13757,0 4.14019,0.09716 6.00787,0.29149c1.86767,0.19432 3.64358,0.48041 5.32773,0.85827c1.68415,0.37785 3.31431,0.82588 4.8905,1.34408c1.57619,0.5182 3.14158,1.10117 4.69618,1.74892v10.8174c-1.23072,-0.66934 -2.52622,-1.33328 -3.88649,-1.99183c-1.36027,-0.65854 -2.86089,-1.25231 -4.50185,-1.78131c-1.64096,-0.52899 -3.44386,-0.96083 -5.4087,-1.2955c-1.96484,-0.33467 -4.17798,-0.502 -6.63942,-0.502c-3.77853,0 -6.91471,0.38865 -9.40854,1.16595c-2.49383,0.7773 -4.48566,1.8137 -5.97548,3.10919c-1.48982,1.2955 -2.53701,2.77992 -3.14158,4.45327c-0.60457,1.67335 -0.90685,3.40608 -0.90685,5.19818c0,1.18754 0.12955,2.35888 0.38865,3.51403c0.2591,1.15515 0.69093,2.24553 1.2955,3.27113c0.60457,1.0256 1.39266,1.97023 2.36428,2.8339c0.97162,0.86366 2.18075,1.60857 3.62739,2.23473c1.44664,0.62616 3.13618,1.11737 5.06863,1.47363c1.93245,0.35626 4.16178,0.53439 6.688,0.53439c2.46144,0 4.67458,-0.15654 6.63942,-0.46962c1.96484,-0.31308 3.76774,-0.72872 5.4087,-1.24692c1.64096,-0.5182 3.14158,-1.10657 4.50185,-1.76511c1.36027,-0.65854 2.65577,-1.33328 3.88649,-2.02421z" data-paper-data="{&quot;glyphName&quot;:&quot;C&quot;,&quot;glyphIndex&quot;:5,&quot;word&quot;:1}" id="element-id-86807"></path><path d="M485,235c0,3.82171 -0.70173,7.1954 -2.10518,10.12107c-1.40345,2.92566 -3.41147,5.37091 -6.02406,7.33575c-2.61258,1.96484 -5.78115,3.44926 -9.50571,4.45327c-3.72455,1.00401 -7.90793,1.50601 -12.55012,1.50601c-4.6422,0 -8.83637,-0.502 -12.58251,-1.50601c-3.74614,-1.00401 -6.9363,-2.48843 -9.57048,-4.45327c-2.63418,-1.96484 -4.66379,-4.41009 -6.08883,-7.33575c-1.42505,-2.92566 -2.13757,-6.29935 -2.13757,-10.12107c0,-3.82171 0.71252,-7.1954 2.13757,-10.12107c1.42505,-2.92566 3.45466,-5.37091 6.08883,-7.33575c2.63418,-1.96484 5.82434,-3.44926 9.57048,-4.45327c3.74614,-1.00401 7.94031,-1.50601 12.58251,-1.50601c4.6422,0 8.82557,0.502 12.55012,1.50601c3.72455,1.00401 6.89312,2.48843 9.50571,4.45327c2.61258,1.96484 4.6206,4.41009 6.02406,7.33575c1.40345,2.92566 2.10518,6.29935 2.10518,10.12107zM472.85472,235c0,-1.66255 -0.2645,-3.31971 -0.79349,-4.97147c-0.52899,-1.65176 -1.46823,-3.13618 -2.81771,-4.45327c-1.34948,-1.31709 -3.19016,-2.38587 -5.52205,-3.20635c-2.33189,-0.82048 -5.30074,-1.23072 -8.90654,-1.23072c-2.41826,0 -4.54503,0.18893 -6.38032,0.56678c-1.83529,0.37785 -3.42227,0.90145 -4.76095,1.57079c-1.33868,0.66934 -2.46144,1.45204 -3.36829,2.34809c-0.90685,0.89605 -1.63017,1.85688 -2.16996,2.88248c-0.53979,1.0256 -0.92304,2.09439 -1.14975,3.20635c-0.22671,1.11197 -0.34007,2.20774 -0.34007,3.28732c0,1.10117 0.11336,2.21314 0.34007,3.3359c0.22671,1.12276 0.60996,2.19695 1.14975,3.22255c0.53979,1.0256 1.26311,1.98103 2.16996,2.86629c0.90685,0.88526 2.02961,1.65716 3.36829,2.3157c1.33868,0.65854 2.92566,1.17674 4.76095,1.5546c1.83529,0.37785 3.96206,0.56678 6.38032,0.56678c3.6058,0 6.57465,-0.41024 8.90654,-1.23072c2.33189,-0.82048 4.17258,-1.88927 5.52205,-3.20635c1.34948,-1.31709 2.28871,-2.80151 2.81771,-4.45327c0.52899,-1.65176 0.79349,-3.30891 0.79349,-4.97147z" data-paper-data="{&quot;glyphName&quot;:&quot;O&quot;,&quot;glyphIndex&quot;:6,&quot;lastGlyphOfWord&quot;:true,&quot;word&quot;:1}" id="element-id-95688"></path></g></g></g><g class="watermark-group" style="opacity:0.00; stroke: white; stroke-width: 2; stroke-opacity: 0.7;"><path class="watermark-path" d="M129.52,370.3a11.88,11.88,0,0,1,2.58,5.58,12,12,0,0,1,.11,3,11.81,11.81,0,0,1-.64,2.93,12.34,12.34,0,0,1-1.41,2.72,11.65,11.65,0,0,1-2.13,2.32,12,12,0,0,1-2.64,1.69,13,13,0,0,1-2.91.9,12.47,12.47,0,0,1-3,.12,12.17,12.17,0,0,1-2.93-.64,11.8,11.8,0,0,1-2.72-1.38,12.19,12.19,0,0,1-4-4.79,11.85,11.85,0,0,1-.89-2.92,12.14,12.14,0,0,1-.13-3,11.54,11.54,0,0,1,.64-2.92,11.67,11.67,0,0,1,3.5-5,11.44,11.44,0,0,1,2.67-1.69,11.64,11.64,0,0,1,2.92-.91,10.71,10.71,0,0,1,3-.12,11.68,11.68,0,0,1,5.66,2,11.7,11.7,0,0,1,2.34,2.12m-1.4,8.76a13,13,0,0,1-1.22,2.32,9.68,9.68,0,0,1-1.81,2,7.44,7.44,0,0,1-2.38,1.37,6.17,6.17,0,0,1-5.11-.46,8.73,8.73,0,0,1-3.85-4.58,6.69,6.69,0,0,1-.34-2.66,6.09,6.09,0,0,1,.77-2.47,7.15,7.15,0,0,1,1.75-2.11,9.58,9.58,0,0,1,1.09-.81,8.23,8.23,0,0,1,1.12-.63,8.14,8.14,0,0,1,1.19-.46,12.71,12.71,0,0,1,1.32-.37l2,2.38a12.83,12.83,0,0,0-1.56.17,7.86,7.86,0,0,0-1.23.32,4.5,4.5,0,0,0-1,.49,6.41,6.41,0,0,0-.93.67,4.49,4.49,0,0,0-1.15,1.39,3.87,3.87,0,0,0-.45,1.58,4.12,4.12,0,0,0,.26,1.63,6.11,6.11,0,0,0,2.36,2.82,4.43,4.43,0,0,0,1.57.53,3.91,3.91,0,0,0,1.62-.17,4.71,4.71,0,0,0,1.57-.89,10.5,10.5,0,0,0,.83-.79,5.71,5.71,0,0,0,.65-.93,10.13,10.13,0,0,0,.54-1.14,12.24,12.24,0,0,0,.44-1.49l2,2.33m-14.46,4.55a8.86,8.86,0,0,0,2.78,2.22,9,9,0,0,0,3.29.94,9.15,9.15,0,0,0,3.39-.37,8.68,8.68,0,0,0,3.11-1.69,8.8,8.8,0,0,0,2.22-2.78,9.15,9.15,0,0,0,1-3.29,8.95,8.95,0,0,0-4.83-8.76,9,9,0,0,0-6.73-.57,9,9,0,0,0-5.33,4.47,8.94,8.94,0,0,0-.57,6.71,8.76,8.76,0,0,0,1.7,3.12"></path><path class="watermark-path" d="M147,349c-.48.12-1.09.31-1.82.57a24.37,24.37,0,0,0-2.4,1A28.35,28.35,0,0,0,140,352a20.72,20.72,0,0,0-2.71,1.94c-.7.59-1.28,1.11-1.74,1.57a15.07,15.07,0,0,0-1.1,1.22,4.09,4.09,0,0,0-.59.92,2.32,2.32,0,0,0-.22.64,1.16,1.16,0,0,0,0,.47,1.83,1.83,0,0,0,.18.29,1.15,1.15,0,0,0,1,.37,5.54,5.54,0,0,0,1.51-.38q.87-.35,1.95-.9l2.26-1.18q1.2-.65,2.49-1.29c.87-.44,1.73-.83,2.59-1.17a18.94,18.94,0,0,1,2.6-.81,9.27,9.27,0,0,1,2.46-.29,6.25,6.25,0,0,1,2.24.49,5.12,5.12,0,0,1,1.89,1.47,6.35,6.35,0,0,1,1.41,2.61,6,6,0,0,1,.09,2.6,8.3,8.3,0,0,1-.9,2.52,17.79,17.79,0,0,1-1.62,2.37,23.92,23.92,0,0,1-2,2.15c-.72.67-1.41,1.29-2.09,1.87a33.79,33.79,0,0,1-5.33,3.7,32.29,32.29,0,0,1-4.91,2.28l-3.61-4.3a21.38,21.38,0,0,0,5.39-1.87,27.2,27.2,0,0,0,5.4-3.56,21.59,21.59,0,0,0,2.38-2.27,8.67,8.67,0,0,0,1.18-1.7,2.32,2.32,0,0,0,.27-1.19,1.34,1.34,0,0,0-.28-.74,1.21,1.21,0,0,0-1-.42,4.32,4.32,0,0,0-1.55.34,15.77,15.77,0,0,0-2,.88c-.72.37-1.48.77-2.27,1.21l-2.45,1.3c-.85.45-1.7.85-2.56,1.21a22.37,22.37,0,0,1-2.54.86,10,10,0,0,1-2.43.32,5.76,5.76,0,0,1-2.2-.45,5,5,0,0,1-1.89-1.45,6.12,6.12,0,0,1-1.31-2.41,6,6,0,0,1-.1-2.41,8.28,8.28,0,0,1,.81-2.38,14.06,14.06,0,0,1,1.49-2.24,22.37,22.37,0,0,1,1.85-2.05q1-1,2-1.77c.7-.59,1.44-1.15,2.23-1.7s1.62-1.06,2.44-1.53,1.63-.91,2.43-1.3,1.58-.75,2.3-1L147,349"></path><path class="watermark-path" d="M186.76,337.57l-10.6-12.63,3.92,18.24-4.66,3.91-17.27-7,10.6,12.63-4.86,4.07-15.09-18,6.59-5.54,18.69,7.52-4.15-19.71,6.57-5.52,15.09,18-4.83,4.05"></path><path class="watermark-path" d="M208.84,313.24l-10,8.42,1.16,4.82L194.56,331l-5.68-25.89,5.42-4.55,24.51,10.09-5.42,4.55-4.55-2m-11.23,3.45,6.57-5.52-8.83-3.87,2.26,9.39"></path><path class="watermark-path" d="M227.49,281.38c-.48.12-1.09.31-1.82.57a24.37,24.37,0,0,0-2.4,1,26.11,26.11,0,0,0-2.7,1.47,20.72,20.72,0,0,0-2.71,1.94c-.7.59-1.28,1.11-1.74,1.57a13.39,13.39,0,0,0-1.1,1.22,4.29,4.29,0,0,0-.59.91,2.48,2.48,0,0,0-.22.65,1.16,1.16,0,0,0,0,.47,1.83,1.83,0,0,0,.18.29,1.15,1.15,0,0,0,1,.37,5.54,5.54,0,0,0,1.51-.38q.87-.34,2-.9l2.26-1.18q1.2-.64,2.49-1.29c.87-.44,1.73-.83,2.59-1.17a18.94,18.94,0,0,1,2.6-.81,9.27,9.27,0,0,1,2.46-.29,6.08,6.08,0,0,1,2.24.49,5.09,5.09,0,0,1,1.89,1.46,6.47,6.47,0,0,1,1.41,2.61,6.07,6.07,0,0,1,.09,2.61,8.3,8.3,0,0,1-.9,2.52,16.32,16.32,0,0,1-1.63,2.36,21.41,21.41,0,0,1-2,2.16c-.72.67-1.41,1.29-2.1,1.86a33.36,33.36,0,0,1-5.32,3.71,31.92,31.92,0,0,1-4.92,2.28l-3.6-4.3a21.38,21.38,0,0,0,5.39-1.87,27.2,27.2,0,0,0,5.4-3.56,21.59,21.59,0,0,0,2.38-2.27,8.67,8.67,0,0,0,1.18-1.7A2.32,2.32,0,0,0,231,293a1.34,1.34,0,0,0-.28-.74,1.21,1.21,0,0,0-1-.42,4.32,4.32,0,0,0-1.55.34,16.54,16.54,0,0,0-2,.88c-.71.37-1.47.77-2.26,1.21l-2.46,1.3c-.84.44-1.7.85-2.55,1.21a24.53,24.53,0,0,1-2.54.86A10,10,0,0,1,214,298a5.76,5.76,0,0,1-2.2-.45,5,5,0,0,1-1.89-1.45,6.12,6.12,0,0,1-1.31-2.41,5.78,5.78,0,0,1-.1-2.41,8,8,0,0,1,.81-2.38,14.61,14.61,0,0,1,1.49-2.25,22.26,22.26,0,0,1,1.85-2q1-1,2-1.77c.7-.59,1.44-1.15,2.23-1.7s1.62-1.06,2.44-1.53,1.63-.91,2.43-1.31,1.58-.74,2.3-1l3.5,4.16"></path><path class="watermark-path" d="M261.64,274.74l-6.29-7.5L243,277.61l6.3,7.5-4.86,4.07-15.09-18,4.85-4.08,5.49,6.55L252,263.3l-5.49-6.55,4.86-4.07,15.09,18-4.86,4.08"></path><path class="watermark-path" d="M272.18,265.9l-15.09-18,4.86-4.08,15.09,18-4.86,4.08"></path><path class="watermark-path" d="M299.65,242.85l-22.51-2.18L287.51,253l-4.85,4.08-15.1-18,5.28-4.43,22.56,2.22L285,224.5l4.83-4.06,15.09,18-5.26,4.42"></path><path class="watermark-path" d="M306.68,205.52a31.88,31.88,0,0,1,5.29-3.66,34.48,34.48,0,0,1,5.14-2.35l3.69,4.39a20.77,20.77,0,0,0-2.37.61,20.47,20.47,0,0,0-2.61,1,25.12,25.12,0,0,0-2.76,1.49,23.9,23.9,0,0,0-2.8,2,20.42,20.42,0,0,0-2.8,2.77,12.77,12.77,0,0,0-1.64,2.52,7,7,0,0,0-.68,2.24,6,6,0,0,0,.66,3.64,8.16,8.16,0,0,0,.94,1.38,9.12,9.12,0,0,0,1.08,1.07,6.39,6.39,0,0,0,1.47.91,6.73,6.73,0,0,0,1.88.48,6.54,6.54,0,0,0,2.28-.18,11.67,11.67,0,0,0,2.74-1.07,19.38,19.38,0,0,0,3.18-2.22c.57-.48,1.06-.92,1.46-1.31a14.57,14.57,0,0,0,1-1.13,11.46,11.46,0,0,0,.81-1.05l.74-1.09-1.82-2.17-5.45,4.57-3.31-3.94,10.31-8.65,7.71,9.19a29,29,0,0,1-1.67,2.43q-1,1.26-2.1,2.52c-.74.84-1.5,1.65-2.3,2.44s-1.58,1.5-2.33,2.14a31,31,0,0,1-3.59,2.61,22.55,22.55,0,0,1-3.64,1.83,15.64,15.64,0,0,1-3.63.89,10.72,10.72,0,0,1-3.49-.15,10.45,10.45,0,0,1-3.28-1.33,12.54,12.54,0,0,1-3-2.67,12,12,0,0,1-2.08-3.44,10.45,10.45,0,0,1-.71-3.5,11.14,11.14,0,0,1,.51-3.51,15.72,15.72,0,0,1,1.56-3.43,21.62,21.62,0,0,1,2.42-3.28,30.3,30.3,0,0,1,3.15-3"></path><path class="watermark-path" d="M336.91,211.59l-15.1-18,4.86-4.08,11.79,14,13.13-11,3.31,3.94-18,15.1"></path><path class="watermark-path" d="M374.54,164.71a12.28,12.28,0,0,1,2.59,4.81,10.44,10.44,0,0,1,0,5,14.62,14.62,0,0,1-2.33,5,25.55,25.55,0,0,1-4.56,4.85,26.07,26.07,0,0,1-5.6,3.67,14.79,14.79,0,0,1-5.38,1.43,10.43,10.43,0,0,1-4.94-.89,13.24,13.24,0,0,1-6.87-8.18,10.48,10.48,0,0,1,0-5,14.51,14.51,0,0,1,2.36-5,25.23,25.23,0,0,1,4.57-4.89,25,25,0,0,1,5.59-3.64,14.45,14.45,0,0,1,5.35-1.43,10.31,10.31,0,0,1,4.93.92,12.22,12.22,0,0,1,4.28,3.38m-4.91,4.11a8.36,8.36,0,0,0-2-1.72,5.5,5.5,0,0,0-2.65-.85,7.72,7.72,0,0,0-3.32.57,14.49,14.49,0,0,0-4,2.52,16.72,16.72,0,0,0-2.38,2.4,10.15,10.15,0,0,0-1.39,2.24,6.71,6.71,0,0,0-.56,2.1,5.69,5.69,0,0,0,.1,1.9,6.21,6.21,0,0,0,.61,1.69,9.85,9.85,0,0,0,1,1.44,10.48,10.48,0,0,0,1.26,1.23,6.67,6.67,0,0,0,1.57.92,6.1,6.1,0,0,0,1.85.41,6.8,6.8,0,0,0,2.15-.2,11.06,11.06,0,0,0,2.45-1,17.67,17.67,0,0,0,2.77-1.94,14.39,14.39,0,0,0,3.18-3.52,7.74,7.74,0,0,0,1.14-3.17,5.54,5.54,0,0,0-.37-2.74,8.52,8.52,0,0,0-1.36-2.3"></path><path class="watermark-path" d="M382.66,141.76A32.3,32.3,0,0,1,388,138.1a34.12,34.12,0,0,1,5.15-2.35l3.69,4.4a19.62,19.62,0,0,0-2.37.6,22.08,22.08,0,0,0-2.61,1,26,26,0,0,0-2.77,1.49,23.9,23.9,0,0,0-2.8,2,21,21,0,0,0-2.8,2.78,13.19,13.19,0,0,0-1.64,2.51,7.29,7.29,0,0,0-.68,2.24,6.36,6.36,0,0,0,.06,2,5.8,5.8,0,0,0,.61,1.68,8.12,8.12,0,0,0,.93,1.38,9.16,9.16,0,0,0,1.08,1.08,6.56,6.56,0,0,0,1.48.9,6,6,0,0,0,1.87.48,6.76,6.76,0,0,0,2.28-.17,12,12,0,0,0,2.74-1.08,18.57,18.57,0,0,0,3.18-2.22c.58-.48,1.06-.92,1.46-1.31s.75-.77,1.05-1.12.57-.72.81-1.06l.73-1.09-1.82-2.17-5.45,4.57-3.3-3.94,10.3-8.65,7.71,9.19a29,29,0,0,1-1.67,2.43q-1,1.26-2.1,2.52c-.73.84-1.5,1.66-2.3,2.44s-1.57,1.5-2.33,2.14a31,31,0,0,1-3.59,2.61,22.15,22.15,0,0,1-3.64,1.83,15.56,15.56,0,0,1-3.62.89,11,11,0,0,1-3.49-.14,10.84,10.84,0,0,1-3.28-1.33,12.82,12.82,0,0,1-3-2.68,12.12,12.12,0,0,1-2.08-3.43A10.71,10.71,0,0,1,375,155a11.18,11.18,0,0,1,.51-3.51,15.51,15.51,0,0,1,1.57-3.43,21.44,21.44,0,0,1,2.42-3.28,30.19,30.19,0,0,1,3.14-3"></path><path class="watermark-path" d="M428.63,119.31a12.26,12.26,0,0,1,2.59,4.82,10.44,10.44,0,0,1,0,5,14.53,14.53,0,0,1-2.34,5,25.29,25.29,0,0,1-4.56,4.86,26,26,0,0,1-5.59,3.67,14.84,14.84,0,0,1-5.38,1.43,10.61,10.61,0,0,1-4.95-.89,12.15,12.15,0,0,1-4.3-3.37,12,12,0,0,1-2.56-4.81,10.48,10.48,0,0,1,0-5,14.39,14.39,0,0,1,2.35-5,27.89,27.89,0,0,1,10.16-8.53,14.49,14.49,0,0,1,5.36-1.43,10.27,10.27,0,0,1,4.92.92,12.21,12.21,0,0,1,4.28,3.37m-4.91,4.12a8.17,8.17,0,0,0-2-1.72,5.58,5.58,0,0,0-2.65-.86,7.86,7.86,0,0,0-3.31.58,14.49,14.49,0,0,0-4,2.52,16.21,16.21,0,0,0-2.38,2.4,9.85,9.85,0,0,0-1.4,2.24,7,7,0,0,0-.56,2.1,6,6,0,0,0,.1,1.9,6.23,6.23,0,0,0,.62,1.69,8.49,8.49,0,0,0,1,1.44,9.18,9.18,0,0,0,1.26,1.23,6.67,6.67,0,0,0,1.57.92,6,6,0,0,0,1.84.41,6.86,6.86,0,0,0,2.16-.2,11.26,11.26,0,0,0,2.45-1,17.62,17.62,0,0,0,2.76-1.94,14.67,14.67,0,0,0,3.19-3.52,7.71,7.71,0,0,0,1.13-3.17,5.53,5.53,0,0,0-.36-2.74,8.55,8.55,0,0,0-1.37-2.3"></path></g><rect data-element-id="element-id-51370" stroke-width="2" fill="transparent" class="invisible-element-box grouping-element" x="65" y="212" width="420" height="47" data-element-name="isPrimaryText"></rect><rect data-element-id="element-id-95688" stroke-width="2" fill="transparent" class="invisible-element-box individual-element" x="424" y="212" width="61" height="47"></rect><rect data-element-id="element-id-50037" stroke-width="2" fill="transparent" class="invisible-element-box individual-element" x="116" y="213" width="60" height="44"></rect><rect data-element-id="element-id-86807" stroke-width="2" fill="transparent" class="invisible-element-box individual-element" x="357" y="212" width="52" height="47"></rect><rect data-element-id="element-id-41633" stroke-width="2" fill="transparent" class="invisible-element-box individual-element" x="259" y="213" width="53" height="44"></rect><rect data-element-id="element-id-20626" stroke-width="2" fill="transparent" class="invisible-element-box individual-element" x="191" y="213" width="51" height="44"></rect><rect data-element-id="element-id-42826" stroke-width="2" fill="transparent" class="invisible-element-box individual-element" x="65" y="213" width="43" height="44"></rect><rect data-element-id="element-id-36765" stroke-width="2" fill="transparent" class="invisible-element-box individual-element" x="327" y="213" width="12" height="44"></rect></svg>